<?xml version="1.0" encoding="UTF-8" standalone="no"?>
<!-- Created with Inkscape (http://www.inkscape.org/) -->

<svg
   xmlns:dc="http://purl.org/dc/elements/1.1/"
   xmlns:cc="http://creativecommons.org/ns#"
   xmlns:rdf="http://www.w3.org/1999/02/22-rdf-syntax-ns#"
   xmlns:svg="http://www.w3.org/2000/svg"
   xmlns="http://www.w3.org/2000/svg"
   xmlns:sodipodi="http://sodipodi.sourceforge.net/DTD/sodipodi-0.dtd"
   xmlns:inkscape="http://www.inkscape.org/namespaces/inkscape"
   width="210mm"
   height="297mm"
   viewBox="0 0 210 297"
   version="1.1"
   id="svg8"
   sodipodi:docname="restart.svg"
   inkscape:version="0.92.3 (2405546, 2018-03-11)">
  <defs
     id="defs2" />
  <sodipodi:namedview
     id="base"
     pagecolor="#ffffff"
     bordercolor="#666666"
     borderopacity="1.0"
     inkscape:pageopacity="0.0"
     inkscape:pageshadow="2"
     inkscape:zoom="0.7"
     inkscape:cx="853.68278"
     inkscape:cy="583.5936"
     inkscape:document-units="mm"
     inkscape:current-layer="layer1"
     showgrid="false"
     inkscape:window-width="1853"
     inkscape:window-height="1025"
     inkscape:window-x="67"
     inkscape:window-y="27"
     inkscape:window-maximized="1" />
  <metadata
     id="metadata5">
    <rdf:RDF>
      <cc:Work
         rdf:about="">
        <dc:format>image/svg+xml</dc:format>
        <dc:type
           rdf:resource="http://purl.org/dc/dcmitype/StillImage" />
        <dc:title></dc:title>
      </cc:Work>
    </rdf:RDF>
  </metadata>
  <g
     inkscape:label="Layer 1"
     inkscape:groupmode="layer"
     id="layer1">
    <ellipse
       id="path3725"
       cx="104.69939"
       cy="-142.51431"
       style="stroke-width:0.29376817"
       rx="102.05357"
       ry="101.4866"
       transform="scale(1,-1)" />
    <path
       style="fill:#ffffff;stroke:#ffffff;stroke-width:0.25754446"
       d="M 106.71658,81.099758 C 38.758341,113.72699 24.942654,122.7901 24.942654,122.7901 l 40.700266,-3.62524 -6.347747,103.68205 103.804357,-4.3503 -24.2708,-97.88166 39.20668,-2.17514 z"
       id="path3763"
       inkscape:connector-curvature="0" />
    <path
       style="fill:#ffffff;stroke:#ffffff;stroke-width:0.25754446"
       d="m 100.80735,64.652868 c 67.95823,32.62722 81.77392,41.690342 81.77392,41.690342 l -40.70027,-3.62525 6.34775,103.68207 -103.804354,-4.3503 24.2708,-97.88167 -39.20668,-2.17514 z"
       id="path3763-3"
       inkscape:connector-curvature="0" />
    <path
       style="fill:#ffffff;stroke:#ffffff;stroke-width:0.26458332"
       d="m 44.424396,202.04973 -3.224991,15.49286 18.095767,5.30433 12.520303,-25.33707 z"
       id="path3820"
       inkscape:connector-curvature="0" />
    <path
       style="fill:#000000;stroke:#000000;stroke-width:0.26458332"
       d="m 64.411954,226.78273 -20.446118,-4.54358 -5.479024,-6.41447 129.759358,-0.26727 -9.48807,9.08716 z"
       id="path3824"
       inkscape:connector-curvature="0" />
    <path
       style="fill:#000000;stroke:#000000;stroke-width:0.37797621"
       d="M 65.735136,83.211216 C 35.196242,99.200781 30.805442,101.60529 31.744123,101.8255 c 0.592857,0.13909 6.946003,0.54143 14.118101,0.89411 7.1721,0.35267 13.462375,0.76659 13.978395,0.91982 0.807492,0.23977 -0.03514,0.76918 -6.047619,3.79957 -8.135754,4.10054 -21.695375,11.32896 -25.506669,13.59718 l -2.645833,1.57463 1.889882,-0.20905 c 5.179091,-0.57289 37.292925,-3.29794 37.415908,-3.17496 0.07803,0.078 -4.455638,18.67887 -10.074814,41.3352 -5.619179,22.65634 -10.863884,44.32416 -11.654904,48.15072 l -1.438219,6.95738 59.960049,-0.27307 c 32.97804,-0.15019 60.02967,-0.34268 60.11474,-0.42775 0.0851,-0.0851 -3.77306,-16.0198 -8.57364,-35.4105 -4.80057,-19.3907 -8.89808,-36.70158 -9.10557,-38.46862 -0.52122,-4.43874 -1.35266,-20.35588 -1.07766,-20.63087 0.20177,-0.20177 29.30114,-2.0045 32.97875,-2.04306 1.3785,-0.0144 0.74483,-0.41778 -7.18155,-4.57109 -17.91795,-9.38873 -19.51589,-10.25049 -19.33774,-10.42864 0.10035,-0.10035 7.09433,0.4375 15.54218,1.19523 8.44784,0.75772 15.54905,1.31457 15.78047,1.23743 1.29359,-0.4312 -41.70411,-22.601185 -72.10996,-37.180512 l -7.96435,-3.818835 z"
       id="path3826"
       inkscape:connector-curvature="0" />
    <path
       style="fill:#000000;stroke:#000000;stroke-width:0.37797621"
       d="M 93.090348,41.845986 C 69.432947,44.855516 49.472773,54.463901 32.969996,70.786589 23.522534,80.130958 16.85374,89.703358 11.596832,101.46568 c -14.0399841,31.41443 -10.99617413,68.1136 8.020155,96.69889 26.201255,39.38565 75.841977,55.62965 120.361303,39.386 5.91825,-2.15938 15.60921,-7.02952 20.71044,-10.40793 24.51974,-16.23876 40.41487,-41.14447 44.90873,-70.36647 0.87493,-5.6894 0.9956,-21.45712 0.20682,-27.02529 -2.63683,-18.6139 -9.47473,-34.90359 -20.78477,-49.514885 C 181.5707,75.780528 174.217,68.310317 169.35198,64.320242 155.01621,52.562653 138.70998,45.362616 119.31172,42.224896 114.17647,41.394255 98.429999,41.166711 93.090348,41.845986 Z m 24.633232,30.658945 c 33.19626,16.117043 64.96602,32.678979 64.96602,33.867519 0,0.19272 -0.80087,0.2537 -1.79538,0.13669 -4.62886,-0.54457 -27.88271,-2.48616 -28.56965,-2.38543 -0.48039,0.0704 4.11941,2.6692 12.07678,6.82307 7.06899,3.69011 13.18273,6.95892 13.5861,7.26402 0.69779,0.52779 0.67834,0.55557 -0.40052,0.57221 -0.62367,0.01 -6.91697,0.35399 -13.98512,0.76528 -13.22597,0.7696 -16.31797,0.88117 -16.01469,0.57789 0.1606,-0.16061 2.40346,-0.33105 10.15606,-0.7718 1.55915,-0.0886 4.45066,-0.27431 6.42559,-0.41261 3.49018,-0.2444 6.61855,-0.38602 10.66744,-0.48293 l 1.97398,-0.0472 -0.92913,-0.66146 c -0.51101,-0.3638 -1.95209,-1.18936 -3.2024,-1.83457 -4.71433,-2.4328 -9.18857,-4.78633 -12.47864,-6.56399 -1.87098,-1.01092 -4.59241,-2.43842 -6.04762,-3.17224 -3.17882,-1.60298 -4.87831,-2.86563 -3.87425,-2.87838 0.3638,-0.005 0.66145,0.18251 0.66145,0.41585 0,0.29842 0.16358,0.2885 0.55149,-0.0334 0.31257,-0.25942 1.00848,-0.36138 1.60639,-0.23536 0.58021,0.12228 2.41563,0.32086 4.07873,0.44127 4.06127,0.29406 7.26399,0.5525 13.98512,1.12849 1.03943,0.0891 2.98998,0.2479 4.33455,0.35295 1.34457,0.10505 2.70528,0.27186 3.02381,0.37069 0.31853,0.0988 0.80473,0.038 1.08046,-0.13528 0.51168,-0.3215 -0.6645,-1.19717 -3.71412,-2.76515 -0.7276,-0.37411 -2.59858,-1.37488 -4.15774,-2.22393 C 159.50103,93.958546 127.57911,77.860794 103.3146,66.117061 l -2.45684,-1.1891 -2.496208,1.322916 c -1.372913,0.727604 -4.179385,2.198616 -6.236608,3.268914 -2.057217,1.070298 -5.611381,2.931342 -7.898138,4.135649 -2.286754,1.204309 -5.933858,3.098877 -8.104674,4.210153 -2.170816,1.111277 -4.126841,2.160059 -4.346726,2.330625 -0.219884,0.170563 -3.801575,2.073441 -7.959312,4.228608 -4.157739,2.155171 -9.090329,4.716965 -10.961311,5.69288 -1.87098,0.975913 -4.847543,2.528316 -6.614584,3.449794 -4.91685,2.564029 -13.75221,7.47273 -14.155208,7.86427 -0.224388,0.21801 -0.1535,0.36111 0.188989,0.3815 0.301438,0.018 1.313469,0.0891 2.248959,0.15815 0.93549,0.069 3.65692,0.23339 6.047618,0.36522 6.585741,0.36316 9.279705,0.52342 13.418156,0.79821 2.078868,0.13805 4.258831,0.23595 4.844362,0.21758 0.810209,-0.0254 1.035605,0.12149 0.94326,0.61481 -0.108677,0.5806 -5.359743,3.44257 -17.310718,9.43479 -1.556301,0.78033 -3.002061,1.56217 -3.212796,1.73742 -0.210735,0.17525 -2.187752,1.28083 -4.393369,2.45685 -6.529123,3.48127 -7.885295,4.30665 -7.664151,4.66446 0.11534,0.18662 0.496173,0.2484 0.846296,0.13727 0.350126,-0.11112 1.739048,-0.30043 3.086494,-0.42068 1.347449,-0.12025 3.045219,-0.27747 3.772824,-0.34939 0.727604,-0.0719 2.513541,-0.22964 3.968749,-0.35049 1.455209,-0.12086 3.581326,-0.30607 4.724702,-0.41159 2.659914,-0.24547 8.404839,-0.73273 13.229167,-1.12205 0.935492,-0.0755 3.209086,-0.26267 5.052435,-0.41594 3.186446,-0.26494 3.340743,-0.24318 3.132349,0.44195 -0.120554,0.39634 -0.400402,1.48602 -0.621882,2.42151 -0.221477,0.93549 -0.48293,1.99855 -0.581009,2.36235 -0.09807,0.36381 -0.263366,1.00164 -0.36731,1.41741 l -0.377976,1.51191 -0.377976,1.5119 -0.377976,1.51191 c -0.454821,1.81929 -0.61728,2.51463 -0.794779,3.40178 -0.199355,0.99642 -1.167918,5.01899 -1.47891,6.14212 -0.100734,0.3638 -0.2682,1.00163 -0.372144,1.41741 l -0.377976,1.5119 -0.377976,1.51191 -0.377975,1.5119 -0.377979,1.51191 -0.377976,1.5119 -0.377975,1.51191 -0.377976,1.5119 -0.377976,1.51191 -0.377976,1.5119 c -0.103944,0.41577 -0.284083,1.13865 -0.400312,1.6064 -0.116223,0.46774 -0.291351,1.28535 -0.38917,1.81692 -0.162364,0.88232 -1.42277,6.04912 -1.861894,7.63248 -0.100896,0.36381 -0.268491,1.00164 -0.372433,1.41741 l -0.377978,1.51191 -0.377976,1.5119 -0.377976,1.51191 -0.377976,1.5119 -0.377976,1.51191 c -0.103944,0.41577 -0.284083,1.13865 -0.400312,1.6064 -0.116223,0.46774 -0.291351,1.28535 -0.38917,1.81691 -0.162364,0.88233 -1.42277,6.04913 -1.861891,7.63249 -0.100899,0.3638 -0.268494,1.00164 -0.372436,1.41741 l -0.377976,1.51191 -0.377978,1.5119 c -0.449897,1.79958 -0.617109,2.51305 -0.797274,3.40179 -0.201052,0.99173 -0.799709,3.50418 -1.103273,4.63021 -0.09808,0.3638 -0.263366,1.00163 -0.367308,1.41741 l -0.377978,1.5119 c -0.186643,0.74658 -0.415248,1.73947 -0.739706,3.2128 -0.09157,0.41577 -0.26941,1.18117 -0.395209,1.70089 -0.125801,0.51972 -0.291189,1.28512 -0.367527,1.70089 -0.07634,0.41578 -0.242004,1.18118 -0.368147,1.7009 -0.126137,0.51972 -0.328215,1.6074 -0.449053,2.41707 -0.214514,1.43731 -1.226958,4.20238 -1.256337,3.43115 -0.05586,-1.46637 4.034586,-18.76306 12.895908,-54.53113 5.629193,-22.7218 10.169858,-41.3774 10.090375,-41.45689 -0.07949,-0.0795 -8.561467,0.61326 -18.848843,1.53943 -10.287375,0.92617 -19.214585,1.63736 -19.838246,1.58041 l -1.133928,-0.10355 1.511904,-0.97777 c 2.442247,-1.57943 14.800646,-8.24649 24.352731,-13.13773 8.242472,-4.22064 8.765947,-4.54889 7.559524,-4.74028 -0.712901,-0.1131 -6.994176,-0.48632 -13.958384,-0.82938 -6.964212,-0.34306 -13.216663,-0.7317 -13.894337,-0.86364 -1.118362,-0.21774 2.075113,-1.97407 34.584819,-19.020767 19.699327,-10.329481 35.922643,-18.791422 36.051823,-18.804315 0.12918,-0.01289 7.78319,3.641328 17.00893,8.120493 z m 28.68031,47.796539 c 0,0.20789 -0.68036,0.37798 -1.5119,0.37798 -1.80972,0 -1.72268,-0.99002 -0.94708,10.77232 0.62011,9.40423 0.66065,10.61189 0.34567,10.2969 -0.32804,-0.32804 -0.73906,-6.06517 -1.10816,-15.46817 l -0.23266,-5.92723 1.25459,-0.1544 c 0.69003,-0.0849 1.46721,-0.18161 1.72707,-0.21488 0.25986,-0.0333 0.47247,0.10959 0.47247,0.31748 z m -1.20693,24.76744 c -0.11637,0.11638 -0.32772,-0.0934 -0.46966,-0.46617 -0.20512,-0.53869 -0.16171,-0.5821 0.21159,-0.21159 0.25831,0.2564 0.37445,0.56139 0.25807,0.67776 z m 0.37798,1.51191 c -0.11638,0.11637 -0.32772,-0.0934 -0.46967,-0.46617 -0.20512,-0.53869 -0.1617,-0.58211 0.21159,-0.21159 0.25832,0.25639 0.37445,0.56138 0.25808,0.67776 z m 0.37075,1.74256 c -0.0944,0.28309 -0.26569,0.11175 -0.39935,-0.39935 -0.16441,-0.6287 -0.11522,-0.77628 0.16527,-0.49579 0.21964,0.21964 0.32498,0.62246 0.23408,0.89514 z m 0.4582,1.27125 c 0,0.31183 -0.0668,0.56696 -0.14855,0.56696 -0.0817,0 -0.24645,-0.25513 -0.36611,-0.56696 -0.11966,-0.31183 -0.0528,-0.56697 0.14854,-0.56697 0.20137,0 0.36612,0.25514 0.36612,0.56697 z m 0.37797,1.5119 c 0,0.31183 -0.0668,0.56696 -0.14854,0.56696 -0.0817,0 -0.24645,-0.25513 -0.36612,-0.56696 -0.11966,-0.31183 -0.0528,-0.56696 0.14855,-0.56696 0.20136,0 0.36611,0.25513 0.36611,0.56696 z m 8.01536,32.57113 c 4.3045,17.39203 7.74472,31.75397 7.64494,31.91543 -0.0998,0.16145 -26.48876,0.30746 -58.64217,0.32446 -32.153409,0.017 -58.371471,-0.0584 -58.262357,-0.16748 0.109111,-0.10911 20.084703,-0.27693 44.390209,-0.37293 48.279778,-0.19069 71.595098,-0.5115 71.595098,-0.98512 0,-0.16805 -0.24652,-1.37916 -0.54782,-2.69135 -0.3013,-1.3122 -0.63276,-2.81103 -0.73658,-3.33075 -0.17718,-0.88697 -0.33909,-1.58024 -0.79447,-3.40178 l -0.37798,-1.51191 c -0.10394,-0.41577 -0.27154,-1.05361 -0.37243,-1.41741 -0.43912,-1.58336 -1.69953,-6.75016 -1.86189,-7.63249 -0.0978,-0.53156 -0.27295,-1.34917 -0.38918,-1.81691 -0.11623,-0.46775 -0.29636,-1.19063 -0.40031,-1.6064 l -0.37797,-1.51191 -0.37798,-1.5119 -0.37798,-1.51191 -0.37797,-1.5119 -0.37798,-1.51191 c -0.10394,-0.41577 -0.27154,-1.0536 -0.37243,-1.41741 -0.43912,-1.58336 -1.69953,-6.75016 -1.86189,-7.63248 -0.0978,-0.53157 -0.27295,-1.34918 -0.38918,-1.81692 -0.11622,-0.46775 -0.29637,-1.19063 -0.40031,-1.6064 l -0.37798,-1.5119 -0.37797,-1.51191 -0.37798,-1.5119 c -0.10394,-0.41578 -0.28397,-1.13866 -0.40007,-1.6064 -0.11609,-0.46775 -0.25959,-1.02054 -0.31887,-1.22843 -0.29656,-1.03997 -0.61384,-2.36443 -0.76965,-3.21279 -0.16178,-0.88087 -0.3013,-1.48992 -0.77926,-3.40179 -0.44097,-1.76388 -0.61637,-2.50851 -0.79506,-3.3753 -0.10413,-0.50515 -0.27554,-1.05794 -0.3809,-1.22842 -0.10537,-0.17048 -0.054,-0.309 0.11421,-0.30781 0.16819,0.001 3.82766,14.232 8.13216,31.62403 z"
       id="path3828"
       inkscape:connector-curvature="0" />
    <path
       style="fill:#000000;stroke:#000000;stroke-width:0.37797621"
       d="M 94.999129,41.573812 C 91.636555,41.845237 83.859395,43.228304 79.54937,44.321356 55.032293,50.539038 33.886716,65.502098 19.714778,86.661589 13.260657,96.297952 7.6964819,109.26365 5.2467726,120.3751 3.364657,128.91205 3.0185624,132.32714 3.013384,142.41308 c -0.0055,10.70385 0.6445184,16.26828 2.9522017,25.27225 6.4254273,25.0703 22.6978223,47.13009 44.8792073,60.84081 12.684361,7.84044 26.769539,12.7783 41.886478,14.68419 5.815195,0.73316 19.846959,0.62306 25.513389,-0.20018 22.37621,-3.25093 41.74683,-12.63993 57.40091,-27.8224 16.3449,-15.85249 26.13015,-34.80201 29.96767,-58.0336 0.97342,-5.89293 0.99201,-23.08068 0.0315,-29.14529 C 200.58284,96.04767 181.96928,69.328254 153.91389,53.750164 142.82673,47.593882 127.85352,42.929399 115.2497,41.705413 111.43638,41.335094 98.960915,41.254023 94.999131,41.573812 Z m 7.404501,23.824146 c -0.087,0.08702 -0.48009,-0.01405 -0.87351,-0.224602 -0.75429,-0.403685 -0.42051,-0.572542 -42.43873,21.46948 -17.814515,9.345181 -24.602233,13.00086 -26.209773,14.115854 -1.448027,1.00436 -0.794409,1.37101 2.586263,1.45077 1.455208,0.0343 2.135565,0.13797 1.511903,0.23031 -0.62366,0.0923 -2.554661,0.0501 -4.291111,-0.0938 l -3.157182,-0.26169 1.263298,-0.76825 c 2.353238,-1.4311 12.448439,-6.780295 41.252904,-21.858886 25.597543,-13.399823 28.818028,-14.990207 29.617338,-14.626018 0.49325,0.224742 0.82562,0.479814 0.7386,0.566832 z m 8.4705,3.876728 c 2.3907,1.225852 4.17663,2.228818 3.96875,2.228818 -0.20789,0 -2.334,-1.002966 -4.7247,-2.228818 -2.3907,-1.225851 -4.17664,-2.228821 -3.96875,-2.228821 0.20788,0 2.334,1.00297 4.7247,2.228821 z m 28.6451,14.157 c 22.05252,11.064168 33.1231,16.843634 39.39061,20.564134 l 3.59077,2.13154 -1.5119,0.0983 c -0.83155,0.0541 -2.87262,-0.065 -4.53571,-0.26474 l -3.02381,-0.36307 3.10399,0.15731 c 5.34615,0.27095 4.95111,-0.10947 -6.50578,-6.264953 -4.36562,-2.345533 -17.97277,-9.334142 -30.23809,-15.530242 -12.26533,-6.196097 -22.167,-11.269654 -22.00371,-11.274576 0.16329,-0.0049 9.94342,4.830898 21.73363,10.746267 z M 43.509863,102.81134 c -0.77408,0.0812 -2.134795,0.0823 -3.023809,0.003 -0.889013,-0.0799 -0.255674,-0.1463 1.40742,-0.14767 1.663096,-0.002 2.39047,0.064 1.616389,0.14518 z m 6.415606,0.37857 c -0.779576,0.0816 -2.055246,0.0816 -2.834822,0 -0.779576,-0.0815 -0.14174,-0.14826 1.41741,-0.14826 1.559152,0 2.196986,0.0667 1.417412,0.14826 z m 6.417165,0.37848 c -0.784212,0.0818 -1.974837,0.0805 -2.645833,-0.003 -0.670997,-0.0835 -0.02937,-0.15044 1.425839,-0.14876 1.455208,0.002 2.004206,0.07 1.219994,0.15181 z m 3.325923,0.4636 c -0.122869,0.19881 -0.473088,0.26565 -0.778261,0.14855 -0.781317,-0.29983 -0.689247,-0.51002 0.223404,-0.51002 0.428043,0 0.67773,0.16266 0.554857,0.36147 z m 93.916883,-0.0307 -2.07887,0.2362 3.49628,1.81319 c 1.92295,0.99724 3.49628,1.89822 3.49628,2.00216 0,0.21733 -6.33892,-3.01427 -7.32044,-3.73197 -0.55028,-0.40238 -0.25013,-0.48326 1.91658,-0.51644 l 2.56904,-0.0393 z m 5.19717,0.31794 c -0.57169,0.0866 -1.50718,0.0866 -2.07887,0 -0.57169,-0.0866 -0.10394,-0.15746 1.03944,-0.15746 1.14337,0 1.61112,0.0709 1.03943,0.15746 z M 58.505528,104.774 c -0.197492,0.19114 -4.524724,2.51054 -9.616066,5.15422 -14.274977,7.41229 -20.908703,11.10393 -21.751258,12.10451 -0.72787,0.86437 -2.06467,1.2632 -2.06467,0.61597 0,-0.47494 32.60043,-18.13146 33.620981,-18.20925 0.09355,-0.007 0.0085,0.14342 -0.188987,0.33455 z m 104.812792,-0.0768 c -0.57168,0.0866 -1.50717,0.0866 -2.07887,0 -0.57168,-0.0866 -0.10394,-0.15746 1.03944,-0.15746 1.14338,0 1.61112,0.0709 1.03943,0.15746 z m 4.92046,0.37732 c -0.56796,0.0862 -1.5885,0.088 -2.26785,0.004 -0.67936,-0.0841 -0.21466,-0.15469 1.03266,-0.15681 1.24732,-0.002 1.80316,0.0667 1.23519,0.15295 z m 4.15097,0.37863 c -0.57169,0.0866 -1.50718,0.0866 -2.07887,0 -0.57169,-0.0866 -0.10394,-0.15746 1.03944,-0.15746 1.14338,0 1.61112,0.0709 1.03943,0.15746 z m -7.46503,5.97432 c 0,0.10394 -1.36071,-0.49517 -3.02381,-1.33136 -1.66309,-0.83619 -3.02381,-1.60538 -3.02381,-1.70932 0,-0.10395 1.36072,0.49516 3.02381,1.33135 1.6631,0.83619 3.02381,1.60538 3.02381,1.70933 z m 7.18155,3.77891 c 0,0.10394 -1.5308,-0.57983 -3.40178,-1.51949 -1.87099,-0.93967 -3.40179,-1.79353 -3.40179,-1.89747 0,-0.10394 1.5308,0.57983 3.40179,1.51949 1.87098,0.93967 3.40178,1.79352 3.40178,1.89747 z m 5.8534,3.19675 c 0.15355,0.24845 -0.54518,0.36728 -1.95684,0.3328 -2.05443,-0.0502 -2.09841,-0.0695 -0.68376,-0.30087 l 1.5119,-0.24723 -1.25672,-0.73857 c -2.41084,-1.41683 -2.50578,-1.70613 -0.18822,-0.57356 1.28415,0.62755 2.44229,1.31489 2.57364,1.52743 z m -6.88143,0.66264 c -0.87724,0.0793 -2.40805,0.0802 -3.40179,0.002 -0.99373,-0.0781 -0.27598,-0.14298 1.595,-0.14413 1.87098,-0.001 2.68404,0.0628 1.80679,0.14203 z m -106.361052,0.95222 c -0.03107,0.60257 -0.09292,0.66443 -0.212225,0.21223 -0.09261,-0.35102 -0.455583,-0.714 -0.806603,-0.80661 -0.452199,-0.1193 -0.39034,-0.18116 0.212228,-0.21222 0.654669,-0.0338 0.840353,0.15193 0.8066,0.8066 z m 99.745052,-0.5757 c -0.77408,0.0812 -2.13479,0.0823 -3.02381,0.003 -0.88901,-0.0798 -0.25567,-0.14629 1.40742,-0.14767 1.6631,-0.002 2.39047,0.064 1.61639,0.14518 z m -102.81951,0.37395 c -0.571688,0.0866 -1.50718,0.0866 -2.078868,0 -0.571691,-0.0866 -0.103944,-0.15746 1.039434,-0.15746 1.143378,0 1.611122,0.0709 1.039434,0.15746 z m 95.99752,0.005 c -0.78421,0.0818 -1.97484,0.0804 -2.64583,-0.003 -0.671,-0.0835 -0.0294,-0.15044 1.42584,-0.14877 1.45521,0.002 2.0042,0.07 1.21999,0.15182 z m -100.533235,0.37283 c -0.571688,0.0866 -1.50718,0.0866 -2.078868,0 -0.571688,-0.0866 -0.103944,-0.15746 1.039434,-0.15746 1.143378,0 1.611125,0.0709 1.039434,0.15746 z m 94.486175,-0.0424 c -0.1256,0.1256 -0.45161,0.13902 -0.72446,0.0298 -0.30152,-0.12066 -0.21196,-0.21022 0.22836,-0.22836 0.39845,-0.0164 0.6217,0.0729 0.4961,0.19852 z m -99.021887,0.42034 c -0.571691,0.0866 -1.507181,0.0866 -2.078871,0 -0.571688,-0.0866 -0.103942,-0.15746 1.039434,-0.15746 1.143378,0 1.611125,0.0709 1.039437,0.15746 z m 90.939207,0.31254 c -0.1231,0.3208 -0.30489,0.5022 -0.40396,0.40312 -0.0991,-0.0991 -0.068,-0.36155 0.069,-0.58326 0.3727,-0.60305 0.59054,-0.4859 0.33496,0.18014 z m 1.85394,-0.33294 c -0.25985,0.10485 -0.68508,0.10485 -0.94494,0 -0.25985,-0.10485 -0.0472,-0.19065 0.47248,-0.19065 0.51971,0 0.73232,0.0858 0.47246,0.19065 z m -96.950886,0.39838 c -0.571688,0.0866 -1.507181,0.0866 -2.078869,0 -0.57169,-0.0866 -0.103944,-0.15746 1.039434,-0.15746 1.143379,0 1.611122,0.0709 1.039435,0.15746 z m -4.150969,0.37733 c -0.567965,0.0862 -1.588503,0.088 -2.267857,0.004 -0.679355,-0.0841 -0.214657,-0.15468 1.032666,-0.1568 1.24732,-0.002 1.803156,0.0667 1.235191,0.15295 z m 20.000685,0.55675 c -0.120658,0.30152 -0.210222,0.21196 -0.228357,-0.22837 -0.0164,-0.39844 0.07292,-0.62169 0.19852,-0.49609 0.125597,0.1256 0.139022,0.45161 0.02982,0.72446 z m -25.960581,-0.0574 c -1.351264,0.15189 -3.222246,0.26832 -4.157736,0.25873 -1.674397,-0.0172 -1.66851,-0.0214 0.377976,-0.27218 1.143378,-0.14012 3.014361,-0.25655 4.157739,-0.25874 l 2.078868,-0.004 -2.456847,0.27617 z m -6.893657,0.62422 c -0.361379,0.0946 -1.041736,0.098 -1.511904,0.008 -0.470169,-0.0904 -0.174498,-0.16782 0.657051,-0.17201 0.831548,-0.004 1.216231,0.0698 0.854853,0.16438 z m 32.476262,0.9451 c -0.120658,0.30152 -0.210222,0.21196 -0.228357,-0.22836 -0.0164,-0.39845 0.07292,-0.62169 0.19852,-0.49609 0.125598,0.12559 0.139023,0.4516 0.02982,0.72445 z m -0.377976,1.51191 c -0.120658,0.30152 -0.210222,0.21196 -0.228359,-0.22837 -0.0164,-0.39844 0.07292,-0.62169 0.198522,-0.49609 0.125598,0.1256 0.139023,0.45161 0.02982,0.72446 z m 80.148602,5.87382 c -0.0818,0.78421 -0.15014,0.23522 -0.15182,-1.21999 -0.002,-1.45521 0.0653,-2.09684 0.14877,-1.42584 0.0835,0.67099 0.0849,1.86162 0.003,2.64583 z m -80.904553,-2.47204 c -0.120658,0.30152 -0.210225,0.21196 -0.22836,-0.22836 -0.0164,-0.39845 0.07292,-0.62169 0.198522,-0.49609 0.125598,0.12559 0.139023,0.4516 0.02982,0.72445 z m -0.377976,1.51191 c -0.120658,0.30152 -0.210225,0.21196 -0.228359,-0.22837 -0.0164,-0.39844 0.07292,-0.62169 0.198519,-0.49609 0.125598,0.1256 0.139025,0.45161 0.02982,0.72446 z m -0.377979,1.5119 c -0.120655,0.30152 -0.210222,0.21196 -0.228356,-0.22836 -0.0164,-0.39845 0.07292,-0.62169 0.198519,-0.49609 0.125598,0.12559 0.139026,0.4516 0.02982,0.72445 z m -0.377976,1.51191 c -0.120657,0.30152 -0.210222,0.21196 -0.228356,-0.22837 -0.0164,-0.39844 0.07292,-0.62169 0.198519,-0.49609 0.125598,0.1256 0.139023,0.45161 0.02982,0.72446 z m 82.416454,3.60596 c -0.0818,0.78422 -0.15014,0.23522 -0.15182,-1.21999 -0.002,-1.45521 0.0653,-2.09684 0.14877,-1.42584 0.0835,0.671 0.0849,1.86162 0.003,2.64583 z M 61.239471,134.3573 c -0.120658,0.30152 -0.210222,0.21196 -0.228357,-0.22836 -0.0164,-0.39845 0.07292,-0.62169 0.19852,-0.4961 0.125597,0.1256 0.139022,0.45161 0.02982,0.72446 z m -0.377976,1.51191 c -0.120658,0.30152 -0.210222,0.21196 -0.228359,-0.22837 -0.0164,-0.39845 0.07292,-0.62169 0.198522,-0.49609 0.125598,0.1256 0.139022,0.4516 0.02982,0.72446 z m -0.377976,1.5119 c -0.120658,0.30152 -0.210222,0.21196 -0.228359,-0.22836 -0.0164,-0.39845 0.07292,-0.62169 0.198522,-0.4961 0.125598,0.1256 0.139023,0.45161 0.02982,0.72446 z m -0.377976,1.5119 c -0.120658,0.30153 -0.210224,0.21197 -0.228359,-0.22836 -0.0164,-0.39844 0.07292,-0.62169 0.198522,-0.49609 0.125598,0.1256 0.139023,0.45161 0.02982,0.72445 z m 84.288687,1.13393 c -0.12065,0.30153 -0.21022,0.21197 -0.22836,-0.22836 -0.0164,-0.39845 0.0729,-0.62169 0.19852,-0.49609 0.1256,0.12559 0.13903,0.4516 0.0298,0.72445 z m -84.666663,0.37798 c -0.120658,0.30152 -0.210224,0.21196 -0.228359,-0.22836 -0.0164,-0.39845 0.07292,-0.6217 0.19852,-0.4961 0.125597,0.1256 0.139025,0.45161 0.02982,0.72446 z m -0.377978,1.5119 c -0.120655,0.30153 -0.210222,0.21196 -0.228357,-0.22836 -0.0164,-0.39844 0.07292,-0.62169 0.19852,-0.49609 0.125598,0.1256 0.139025,0.45161 0.02982,0.72445 z m -0.377976,1.51191 c -0.120658,0.30152 -0.210222,0.21196 -0.228356,-0.22836 -0.0164,-0.39845 0.07292,-0.62169 0.198519,-0.4961 0.125598,0.1256 0.139023,0.45161 0.02982,0.72446 z m -0.377976,1.5119 c -0.120658,0.30153 -0.210222,0.21197 -0.228356,-0.22836 -0.0164,-0.39845 0.07292,-0.62169 0.198519,-0.49609 0.125598,0.1256 0.139023,0.4516 0.02982,0.72445 z m -0.377975,1.51191 c -0.120658,0.30152 -0.210222,0.21196 -0.22836,-0.22836 -0.0164,-0.39845 0.07292,-0.62169 0.198522,-0.4961 0.125598,0.1256 0.139023,0.45161 0.02982,0.72446 z m -1.04565,4.62233 c -0.47785,1.98215 -0.939689,3.53303 -1.026305,3.44641 -0.08662,-0.0866 0.233473,-1.77924 0.711324,-3.76139 0.477851,-1.98215 0.939689,-3.53303 1.026306,-3.44641 0.08662,0.0866 -0.233474,1.77925 -0.711325,3.76139 z m -1.222208,4.82707 c -0.120658,0.30153 -0.210222,0.21197 -0.228357,-0.22836 -0.0164,-0.39845 0.07292,-0.62169 0.19852,-0.49609 0.125598,0.1256 0.139023,0.4516 0.02982,0.72445 z m -0.377976,1.51191 c -0.120658,0.30152 -0.210222,0.21196 -0.228359,-0.22836 -0.0164,-0.39845 0.07292,-0.6217 0.198522,-0.4961 0.125598,0.1256 0.139023,0.45161 0.02982,0.72446 z m -0.377976,1.5119 c -0.120657,0.30153 -0.210222,0.21196 -0.228359,-0.22836 -0.0164,-0.39845 0.07292,-0.62169 0.198522,-0.49609 0.125598,0.1256 0.139023,0.4516 0.02982,0.72445 z m -0.377975,1.51191 c -0.120658,0.30152 -0.210225,0.21196 -0.22836,-0.22836 -0.0164,-0.39845 0.07292,-0.6217 0.198523,-0.4961 0.125597,0.1256 0.139022,0.45161 0.02982,0.72446 z m -0.377976,1.5119 c -0.120658,0.30152 -0.210225,0.21196 -0.228359,-0.22836 -0.0164,-0.39845 0.07292,-0.62169 0.198519,-0.49609 0.125598,0.1256 0.139025,0.4516 0.02982,0.72445 z m -0.377979,1.51191 c -0.120655,0.30152 -0.210222,0.21196 -0.228356,-0.22837 -0.0164,-0.39844 0.07292,-0.62169 0.198519,-0.49609 0.125598,0.1256 0.139026,0.45161 0.02982,0.72446 z m -0.377975,1.5119 c -0.120658,0.30152 -0.210222,0.21196 -0.228357,-0.22836 -0.0164,-0.39845 0.07292,-0.62169 0.19852,-0.49609 0.125597,0.1256 0.139022,0.4516 0.02982,0.72445 z m -0.377976,1.51191 c -0.120658,0.30152 -0.210222,0.21196 -0.228357,-0.22837 -0.0164,-0.39844 0.07292,-0.62169 0.19852,-0.49609 0.125597,0.1256 0.139022,0.45161 0.02982,0.72446 z m -0.377976,1.5119 c -0.120658,0.30152 -0.210222,0.21196 -0.228359,-0.22836 -0.0164,-0.39845 0.07292,-0.62169 0.198522,-0.49609 0.125598,0.1256 0.139023,0.4516 0.02982,0.72445 z m -2.183077,9.15455 c -1.109395,4.46891 -2.086372,8.05599 -2.171068,7.97129 -0.08469,-0.0847 0.753695,-3.81037 1.863085,-8.27927 1.109395,-4.46891 2.086372,-8.05599 2.17107,-7.97129 0.08469,0.0847 -0.753697,3.81036 -1.863087,8.27927 z m 101.212832,-3.86288 c -0.12065,0.30152 -0.21022,0.21196 -0.22835,-0.22836 -0.0164,-0.39845 0.0729,-0.6217 0.19852,-0.4961 0.1256,0.1256 0.13902,0.45161 0.0298,0.72446 z m 0.37798,1.5119 c -0.12066,0.30153 -0.21022,0.21196 -0.22836,-0.22836 -0.0164,-0.39845 0.0729,-0.62169 0.19852,-0.49609 0.1256,0.1256 0.13903,0.4516 0.0298,0.72445 z m 0.37798,1.51191 c -0.12066,0.30152 -0.21023,0.21196 -0.22836,-0.22836 -0.0164,-0.39845 0.0729,-0.6217 0.19852,-0.4961 0.1256,0.1256 0.13902,0.45161 0.0298,0.72446 z m 0.37797,1.5119 c -0.12065,0.30152 -0.21022,0.21196 -0.22835,-0.22836 -0.0164,-0.39845 0.0729,-0.62169 0.19852,-0.49609 0.1256,0.1256 0.13902,0.4516 0.0298,0.72445 z m 0.37798,1.51191 c -0.12066,0.30152 -0.21022,0.21196 -0.22836,-0.22837 -0.0164,-0.39844 0.0729,-0.62169 0.19852,-0.49609 0.1256,0.1256 0.13903,0.45161 0.0298,0.72446 z m 0.37798,1.5119 c -0.12066,0.30152 -0.21023,0.21196 -0.22836,-0.22836 -0.0164,-0.39845 0.0729,-0.62169 0.19852,-0.49609 0.1256,0.1256 0.13902,0.4516 0.0298,0.72445 z m 0.37797,1.51191 c -0.12066,0.30152 -0.21022,0.21196 -0.22835,-0.22837 -0.0164,-0.39844 0.0729,-0.62169 0.19851,-0.49609 0.1256,0.1256 0.13903,0.45161 0.0298,0.72446 z m 0.37798,1.5119 c -0.12066,0.30152 -0.21022,0.21196 -0.22836,-0.22836 -0.0164,-0.39845 0.0729,-0.62169 0.19852,-0.49609 0.1256,0.1256 0.13903,0.4516 0.0298,0.72445 z m 3.47682,13.91425 c -0.0132,0.31183 -0.76924,-2.32455 -1.68013,-5.85863 -0.91089,-3.53408 -1.64536,-6.68073 -1.63218,-6.99256 0.0132,-0.31183 0.76925,2.32455 1.68014,5.85863 0.91088,3.53408 1.64536,6.68073 1.63217,6.99256 z M 48.38828,186.51817 c -0.120658,0.30153 -0.210222,0.21196 -0.228357,-0.22836 -0.0164,-0.39844 0.07292,-0.62169 0.19852,-0.49609 0.125598,0.1256 0.139023,0.45161 0.02982,0.72445 z m -0.377976,1.51191 c -0.120658,0.30152 -0.210222,0.21196 -0.228356,-0.22836 -0.0164,-0.39845 0.07292,-0.6217 0.198519,-0.4961 0.125598,0.1256 0.139023,0.45161 0.02982,0.72446 z m -1.235726,5.3772 c -0.584239,2.39547 -1.132641,4.28501 -1.218665,4.19899 -0.08602,-0.086 0.321617,-2.11633 0.905862,-4.5118 0.584239,-2.39547 1.132641,-4.28501 1.218665,-4.19899 0.08602,0.086 -0.321614,2.11633 -0.905862,4.5118 z m -1.410107,5.58411 c -0.120658,0.30152 -0.210222,0.21196 -0.228357,-0.22836 -0.0164,-0.39845 0.07292,-0.62169 0.19852,-0.4961 0.125598,0.1256 0.139022,0.45161 0.02982,0.72446 z m 113.014879,0.37798 c -0.12066,0.30152 -0.21022,0.21196 -0.22836,-0.22837 -0.0164,-0.39845 0.0729,-0.62169 0.19852,-0.49609 0.1256,0.1256 0.13903,0.4516 0.0298,0.72446 z m -113.678052,2.73695 c -0.259773,1.16078 -0.545208,2.03762 -0.634307,1.94853 -0.08909,-0.0891 0.05056,-1.11172 0.310327,-2.27251 0.259771,-1.16079 0.545209,-2.03763 0.634305,-1.94854 0.08909,0.0891 -0.05055,1.11173 -0.310325,2.27252 z m 114.056032,-1.22505 c -0.12066,0.30152 -0.21023,0.21196 -0.22836,-0.22836 -0.0164,-0.39845 0.0729,-0.6217 0.19852,-0.4961 0.1256,0.12561 0.13902,0.45161 0.0298,0.72446 z m 0.37797,1.5119 c -0.12066,0.30153 -0.21022,0.21196 -0.22835,-0.22836 -0.0164,-0.39844 0.0729,-0.62169 0.19852,-0.49609 0.12559,0.1256 0.13902,0.45161 0.0298,0.72445 z m 0.37798,1.51191 c -0.12066,0.30152 -0.21022,0.21196 -0.22836,-0.22836 -0.0164,-0.39845 0.0729,-0.6217 0.19852,-0.4961 0.1256,0.1256 0.13902,0.45161 0.0298,0.72446 z m -115.660712,1.5119 c -0.120658,0.30153 -0.210225,0.21196 -0.22836,-0.22836 -0.0164,-0.39845 0.07292,-0.62169 0.19852,-0.49609 0.125598,0.1256 0.139025,0.4516 0.02982,0.72445 z M 162.27057,215.079 c 0.007,0.37342 -4.52831,0.45696 -21.63082,0.39848 l -21.63913,-0.074 20.97767,-0.25018 c 11.53773,-0.13761 21.10525,-0.2744 21.26116,-0.30399 0.49207,-0.0934 0.3116,-1.63459 -0.66194,-5.65303 -0.51945,-2.14408 -0.92565,-4.10011 -0.90266,-4.34673 0.0469,-0.50321 2.58271,9.4901 2.59572,10.22944 z M 43.384379,207.78196 c -0.1423,0.75854 -0.334327,1.30357 -0.426719,1.21117 -0.0924,-0.0924 -0.05156,-0.78861 0.09074,-1.54715 0.1423,-0.75854 0.334327,-1.30357 0.42672,-1.21117 0.09239,0.0924 0.05156,0.78861 -0.09074,1.54715 z m -0.673615,2.95031 c -0.104855,0.25986 -0.190646,0.0472 -0.190646,-0.47247 0,-0.51971 0.08579,-0.73233 0.190646,-0.47247 0.104854,0.25986 0.104854,0.68508 0,0.94494 z m -0.460315,2.34136 c -0.1423,0.75854 -0.334327,1.30357 -0.42672,1.21117 -0.0924,-0.0924 -0.05156,-0.78861 0.09074,-1.54715 0.1423,-0.75854 0.334327,-1.30357 0.42672,-1.21118 0.0924,0.0924 0.05156,0.78862 -0.09074,1.54716 z m 58.532451,2.7592 c -1.912158,0.0685 -5.143855,0.0687 -7.181549,5.3e-4 -2.037696,-0.0681 -0.473205,-0.12411 3.476646,-0.12447 3.949853,-2.6e-4 5.617053,0.0554 3.704903,0.12381 z m 12.43704,-2.7e-4 c -1.51627,0.0719 -3.89752,0.0714 -5.29166,-0.001 -1.39415,-0.0725 -0.15356,-0.13136 2.75686,-0.13077 2.91042,5.3e-4 4.05108,0.0599 2.5348,0.13185 z"
       id="path3830"
       inkscape:connector-curvature="0" />
    <path
       style="fill:#000000;stroke:#000000;stroke-width:0.37797621"
       d="M 92.731271,41.695189 C 72.705965,44.457394 55.329854,51.817851 40.38157,63.870326 35.184146,68.060894 27.062999,76.488657 22.972288,81.936888 11.696115,96.955122 4.7597967,114.98077 3.118876,133.53064 c -0.5342434,6.03938 -0.2506011,17.69259 0.5658025,23.24553 1.9561185,13.30496 7.1430515,27.62471 14.0334285,38.74256 16.931766,27.31998 45.979877,45.18276 78.124548,48.04171 6.085355,0.54124 17.721295,0.23154 23.346945,-0.62139 11.53664,-1.74913 20.69239,-4.62689 31.22308,-9.8138 15.95255,-7.85746 30.29792,-20.71217 40.36301,-36.16879 8.07842,-12.40578 14.0776,-29.56546 15.34614,-43.89518 0.4876,-5.50806 0.48208,-15.98398 -0.0112,-21.23154 C 204.40958,113.73329 196.31879,94.147943 184.3286,79.102068 181.06051,75.0011 173.23345,67.16756 169.08245,63.843296 157.84075,54.840554 144.55114,48.131666 130.81401,44.52454 c -9.58493,-2.51683 -12.90185,-2.92422 -24.85358,-3.052561 -5.92478,-0.06362 -11.877902,0.03681 -13.229167,0.22321 z M 34.900915,99.29961 c 0,0.09064 -0.685441,0.550037 -1.523199,1.02089 -0.898789,0.50515 -1.445961,1.05737 -1.33478,1.3471 0.123174,0.32098 -0.134689,0.49101 -0.744657,0.49101 -1.438233,0 -1.118155,-0.45763 1.245412,-1.78062 2.35788,-1.319804 2.357224,-1.319508 2.357224,-1.07838 z m 146.845005,6.6408 c 0.13957,0.22583 -0.34251,0.36403 -1.20737,0.3461 -0.79185,-0.0164 -1.22711,-0.11563 -0.96725,-0.22049 0.25986,-0.10485 0.47247,-0.43758 0.47247,-0.7394 0,-0.4264 0.16387,-0.46107 0.7349,-0.15546 0.4042,0.21631 0.83946,0.56248 0.96725,0.76925 z m -4.14899,12.39818 c -0.11638,0.11638 -0.42137,2.4e-4 -0.67776,-0.25807 -0.37052,-0.3733 -0.3271,-0.41672 0.21159,-0.21159 0.37276,0.14194 0.58254,0.35329 0.46617,0.46966 z m -15.553,95.79547 c 0.17814,0.74257 0.10407,1.03943 -0.25934,1.03943 -0.35195,0 -0.45663,-0.35482 -0.3397,-1.15145 0.19436,-1.3243 0.25729,-1.31253 0.59904,0.11202 z m -6.49324,1.3213 c -1.93347,0.0687 -4.99507,0.0684 -6.80357,-7.9e-4 -1.80849,-0.0691 -0.22656,-0.12537 3.5154,-0.12498 3.74197,2.7e-4 5.22164,0.057 3.28817,0.1257 z"
       id="path3832"
       inkscape:connector-curvature="0" />
    <path
       style="fill:#000000;stroke:#000000;stroke-width:0.37797621"
       d="m 93.298236,41.543665 c -9.55096,1.420069 -16.293655,3.0383 -23.413796,5.619255 -33.445709,12.123624 -58.282995,40.838686 -65.2232747,75.40641 -1.4300684,7.1228 -1.8882981,11.88014 -1.8879105,19.60031 5.291e-4,10.58524 0.9363673,17.7471 3.5788951,27.38891 3.2693829,11.92903 8.9385671,23.45546 16.5379531,33.62453 4.555049,6.0953 14.124435,15.66513 20.217689,20.21862 15.183956,11.34696 32.867089,18.23715 51.702348,20.14566 6.43447,0.65199 19.73973,0.25368 25.89137,-0.77509 16.5328,-2.76487 31.92916,-9.21119 44.60083,-18.67397 21.69366,-16.2001 35.0839,-37.84807 40.12209,-64.86528 0.96185,-5.15787 1.39021,-21.28892 0.73402,-27.64113 -1.82502,-17.66711 -8.89567,-35.321446 -20.23963,-50.535342 -3.91994,-5.257192 -13.58322,-14.889615 -19.10422,-19.04319 -11.03318,-8.300521 -23.0022,-14.111803 -36.42344,-17.684556 -8.77864,-2.336888 -12.22425,-2.735694 -24.61971,-2.849563 -6.236606,-0.05729 -11.849554,-0.02831 -12.473214,0.06443 z M 31.986624,101.40266 c -0.176538,0.67508 -1.243446,1.11622 -1.243446,0.51414 0,-0.18974 1.113629,-1.20349 1.382025,-1.25807 0.03251,-0.007 -0.02985,0.32816 -0.138579,0.74393 z m 149.249416,4.62857 c -0.43285,0.43285 -1.30279,0.0138 -0.99734,-0.48044 0.11399,-0.18444 0.46838,-0.23515 0.78752,-0.11268 0.37899,0.14543 0.45177,0.35117 0.20982,0.59312 z"
       id="path3834"
       inkscape:connector-curvature="0" />
    <path
       style="fill:#000000;stroke:#000000;stroke-width:0.37797621"
       d="M 89.140497,42.094308 C 72.414179,45.026275 58.873609,50.49748 45.862224,59.581332 40.835148,63.090969 37.349914,66.046505 32.439263,70.964231 17.217495,86.207924 7.7332127,104.533 3.8722165,126.1601 c -1.0238026,5.73476 -1.4220892,20.12799 -0.7443285,26.89844 1.8224312,18.20506 9.259606,36.67766 20.746922,51.53162 3.392021,4.38614 11.917869,13.03346 16.50676,16.74194 15.175529,12.26401 34.377924,20.19102 53.828103,22.22097 6.964997,0.72691 20.862457,0.26207 27.625767,-0.92402 21.46541,-3.76442 40.0153,-13.39968 55.38429,-28.76791 5.42089,-5.42062 8.55531,-9.26256 13.00822,-15.94448 8.31958,-12.48412 14.40355,-29.17298 15.87369,-43.54288 0.50922,-4.97739 0.51377,-19.6031 0.007,-24.05594 -1.20011,-10.55495 -4.66962,-22.01521 -9.84095,-32.505952 -4.91148,-9.963592 -10.17548,-17.46617 -17.7233,-25.260308 -13.0317,-13.456983 -27.60473,-22.314159 -45.16105,-27.44792 -10.5407,-3.082279 -16.43085,-3.812656 -30.39274,-3.768688 -7.780059,0.0245 -10.513329,0.174348 -13.85058,0.759336 z M 31.635816,101.59165 c -0.11966,0.31183 -0.390284,0.56696 -0.601385,0.56696 -0.221228,0 -0.184494,-0.24017 0.08672,-0.56696 0.258794,-0.31183 0.529418,-0.56696 0.601382,-0.56696 0.07196,0 0.03294,0.25513 -0.08672,0.56696 z"
       id="path3836"
       inkscape:connector-curvature="0" />
    <path
       style="fill:#000000;stroke:#000000;stroke-width:0.37797621"
       d="M 88.762521,42.068678 C 70.012612,45.432254 54.118491,52.523871 40.192581,63.73954 36.322092,66.856757 28.045754,75.192764 24.940015,79.102068 13.916017,92.978358 6.9811809,108.34014 3.8670319,125.78213 2.8526165,131.46375 2.4367602,147.0362 3.1226148,153.6581 c 2.1356079,20.6192 11.5316392,41.33755 25.7866962,56.85994 15.893455,17.30645 35.610826,28.07982 59.097259,32.29014 5.609968,1.00568 19.8208,1.40152 26.95214,0.75076 17.89524,-1.63302 36.39972,-8.78511 50.87091,-19.6619 18.09994,-13.60422 30.82039,-31.92361 37.02713,-53.32474 3.16672,-10.919 3.80245,-16.51198 3.53072,-31.06228 -0.21654,-11.59527 -0.5001,-13.83402 -2.88297,-22.76158 C 199.86723,103.12116 192.0277,87.877371 183.49717,77.844609 180.04498,73.784483 171.92775,65.862321 168.1876,62.902948 157.05591,54.095064 143.6636,47.552932 129.38471,43.94778 120.67596,41.748987 119.52454,41.628181 105.77145,41.470323 94.227302,41.337817 92.497396,41.398673 88.762521,42.068678 Z"
       id="path3838"
       inkscape:connector-curvature="0" />
    <path
       style="fill:#000000;stroke:#000000;stroke-width:0.37797621"
       d="M 88.408432,42.09293 C 71.366112,45.091876 56.418963,51.472922 43.091531,61.439043 36.96154,66.022986 27.475595,75.5374 22.789542,81.801958 13.019774,94.862688 6.5458239,109.96098 3.6883154,126.34909 2.71433,131.935 2.4991575,149.33738 3.3239522,155.8175 c 2.2648439,17.79407 9.9373348,35.6292 21.6319078,50.28457 3.2675,4.09475 11.079588,11.91485 15.236721,15.25234 13.764937,11.05098 30.956054,18.71796 48.56994,21.66147 6.050667,1.01115 25.715019,1.00963 31.749999,-0.002 10.71699,-1.79726 20.31739,-4.90534 30.01757,-9.71802 22.11441,-10.97193 39.50087,-29.70922 48.92746,-52.72884 3.0722,-7.50228 5.47511,-16.37124 6.49682,-23.97939 0.74224,-5.52702 0.73245,-22.75247 -0.0161,-28.42334 C 203.7351,111.47452 194.92479,91.423891 184.08928,78.439779 180.4551,74.084954 170.53191,64.54867 166.43584,61.474635 c -11.90018,-8.930891 -26.11173,-15.34614 -41.1986,-18.597488 -5.69619,-1.227574 -10.66264,-1.5748 -22.05717,-1.542106 -8.715071,0.02498 -11.384939,0.162002 -14.771625,0.757957 z"
       id="path3840"
       inkscape:connector-curvature="0" />
    <path
       style="fill:#000000;stroke:#000000;stroke-width:0.37797621"
       d="M 88.139742,42.07453 C 69.920799,45.284283 52.693964,53.135648 39.43663,64.271635 35.131425,67.887947 27.62995,75.53635 24.315029,79.689408 16.748613,89.168903 9.8097484,102.5854 6.4174372,114.29493 4.9065296,119.51026 3.5879857,125.9132 3.1680025,130.0744 c -0.5755406,5.70248 -0.4858737,21.37319 0.1496063,26.14598 2.2509249,16.90566 9.0454072,33.25193 19.7784402,47.58325 4.009018,5.35306 13.56639,14.9891 18.885417,19.04086 14.523984,11.06363 33.305456,18.80973 50.073451,20.65195 4.723156,0.51891 19.859873,0.5206 24.921283,0.003 10.21923,-1.0455 22.06779,-4.54298 32.64049,-9.63487 16.88713,-8.13298 32.16859,-21.91282 42.17153,-38.02757 7.29971,-11.75985 12.79153,-27.08365 14.33738,-40.00555 0.55755,-4.6605 0.55435,-22.21426 -0.005,-26.83631 C 204.21458,113.24191 196.55089,94.764938 186.2888,81.181151 182.79593,76.557287 174.82225,68.333561 169.51352,63.879438 158.134,54.331827 141.7964,46.446712 126.37117,43.057375 c -6.60271,-1.450789 -10.66499,-1.755703 -22.94716,-1.722408 -9.229217,0.02503 -11.985445,0.158385 -15.284257,0.739558 z"
       id="path3842"
       inkscape:connector-curvature="0" />
    <path
       style="fill:#000000;stroke:#000000;stroke-width:0.37797621"
       d="m 96.133056,41.322817 c -18.470562,0.798785 -39.680385,9.144778 -55.37351,21.789295 -2.078868,1.675021 -6.331558,5.660342 -9.450419,8.856265 -8.350148,8.556474 -12.802702,14.76973 -18.113713,25.276545 -4.6316544,9.162838 -7.7839599,18.587138 -9.4726077,28.319818 -1.403158,8.08723 -1.4126153,25.86662 -0.01801,33.85727 2.8421343,16.28451 10.4300917,33.26353 20.6080457,46.11309 3.085085,3.89489 12.551813,13.36162 16.446704,16.4467 9.724895,7.70295 23.552272,14.83006 35.570842,18.33444 4.66394,1.35991 11.012734,2.68993 15.232896,3.19116 4.55131,0.54056 20.998426,0.54343 25.925426,0.005 10.86293,-1.18817 24.69018,-5.56654 35.33095,-11.18747 26.88463,-14.20166 46.29401,-40.26385 52.38345,-70.33858 1.71835,-8.48663 2.04016,-24.75548 0.68624,-34.69185 -1.78642,-13.11037 -7.65644,-28.22811 -15.92382,-41.010411 -7.33537,-11.341312 -20.117,-23.591904 -31.99965,-30.670148 -10.54152,-6.279359 -24.3526,-11.536786 -34.99651,-13.322025 -5.78501,-0.970282 -17.23861,-1.383686 -26.836314,-0.968623 z"
       id="path3844"
       inkscape:connector-curvature="0" />
    <path
       style="fill:#000000;stroke:#000000;stroke-width:0.37797621"
       d="M 94.243177,41.293449 C 76.583272,42.430972 54.353195,51.608105 40.003595,63.684914 36.166769,66.914031 27.757821,75.358965 24.581254,79.173243 16.450023,88.936871 8.8798105,104.07 5.415164,117.48696 c -1.6742293,6.48351 -2.2441833,10.34574 -2.6846302,18.19212 -1.1390236,20.29124 2.0793932,35.90003 10.9849342,53.27511 5.423265,10.58101 10.747633,17.69289 19.923067,26.61172 8.000566,7.77681 15.19702,12.8634 25.372369,17.93366 10.144757,5.05502 20.206229,8.2637 30.885545,9.84965 5.709364,0.84787 23.088701,0.84728 29.409541,-0.001 17.05388,-2.2887 35.63639,-10.37499 49.77587,-21.66027 4.18982,-3.34406 11.6865,-10.76904 14.97313,-14.82994 10.00702,-12.3645 17.19603,-27.10124 20.74359,-42.52232 2.42189,-10.52781 2.68591,-29.76509 0.55971,-40.78279 -2.16066,-11.1963 -6.85932,-23.19412 -13.37873,-34.161993 C 183.207,74.632451 167.81096,60.304531 152.13939,52.314688 141.23766,46.756653 128.77179,42.74975 119.1896,41.723637 114.10556,41.179217 99.836366,40.933107 94.243177,41.29338 Z"
       id="path3846"
       inkscape:connector-curvature="0" />
    <circle
       style="fill:#ffffff;stroke:#000000;stroke-width:0.26458332"
       id="path3872"
       cx="105.83334"
       cy="-142.32532"
       r="83.154762"
       transform="scale(1,-1)" />
    <ellipse
       style="fill:#000000;stroke:#000000;stroke-width:0.34737268"
       id="path3874"
       cx="105.26637"
       cy="-141.56938"
       rx="72.341042"
       ry="69.506226"
       transform="scale(1,-1)" />
    <path
       style="fill:#000000;stroke:#000000;stroke-width:0.26458332"
       d="m 101.56242,230.5245 0.53454,-28.33057 -16.570713,-1.87088 z"
       id="path3880"
       inkscape:connector-curvature="0" />
    <path
       style="fill:#000000;stroke:#000000;stroke-width:0.26458332"
       d="m 102.09696,202.19393 c -3.741774,34.2105 -3.207236,34.47777 -3.207236,34.47777 L 41.778351,215.6701 69.490076,179.20875 Z"
       id="path3884"
       inkscape:connector-curvature="0" />
    <path
       style="fill:#ffffff;stroke:#ffffff;stroke-width:0.26458332"
       d="M 105.83873,235.60262 C 90.337099,220.10099 90.604368,220.10099 90.604368,220.10099 l 11.492592,-17.90706 z"
       id="path3886"
       inkscape:connector-curvature="0" />
  </g>
</svg>
