<?xml version="1.0" encoding="UTF-8" standalone="no"?>
<!-- Created with Inkscape (http://www.inkscape.org/) -->

<svg
   xmlns:dc="http://purl.org/dc/elements/1.1/"
   xmlns:cc="http://creativecommons.org/ns#"
   xmlns:rdf="http://www.w3.org/1999/02/22-rdf-syntax-ns#"
   xmlns:svg="http://www.w3.org/2000/svg"
   xmlns="http://www.w3.org/2000/svg"
   xmlns:sodipodi="http://sodipodi.sourceforge.net/DTD/sodipodi-0.dtd"
   xmlns:inkscape="http://www.inkscape.org/namespaces/inkscape"
   width="210mm"
   height="297mm"
   viewBox="0 0 210 297"
   version="1.1"
   id="svg8"
   sodipodi:docname="rotate.svg"
   inkscape:version="0.92.3 (2405546, 2018-03-11)">
  <defs
     id="defs2" />
  <sodipodi:namedview
     id="base"
     pagecolor="#ffffff"
     bordercolor="#666666"
     borderopacity="1.0"
     inkscape:pageopacity="0.0"
     inkscape:pageshadow="2"
     inkscape:zoom="0.98994949"
     inkscape:cx="611.12205"
     inkscape:cy="659.95975"
     inkscape:document-units="mm"
     inkscape:current-layer="layer1"
     showgrid="false"
     inkscape:window-width="1853"
     inkscape:window-height="1025"
     inkscape:window-x="67"
     inkscape:window-y="27"
     inkscape:window-maximized="1" />
  <metadata
     id="metadata5">
    <rdf:RDF>
      <cc:Work
         rdf:about="">
        <dc:format>image/svg+xml</dc:format>
        <dc:type
           rdf:resource="http://purl.org/dc/dcmitype/StillImage" />
        <dc:title></dc:title>
      </cc:Work>
    </rdf:RDF>
  </metadata>
  <g
     inkscape:label="Layer 1"
     inkscape:groupmode="layer"
     id="layer1">
    <ellipse
       id="path3725"
       cx="104.69939"
       cy="142.59673"
       style="stroke-width:0.29376817"
       rx="102.05357"
       ry="101.4866" />
    <path
       style="fill:#ffffff;stroke:#ffffff;stroke-width:0.25754446"
       d="M 106.71658,204.01128 C 38.758341,171.38405 24.942654,162.32094 24.942654,162.32094 l 40.700266,3.62524 -6.347747,-103.682056 103.804357,4.3503 -24.2708,97.881666 39.20668,2.17514 z"
       id="path3763"
       inkscape:connector-curvature="0" />
    <path
       style="fill:#ffffff;stroke:#ffffff;stroke-width:0.25754446"
       d="m 100.80735,220.45817 c 67.95823,-32.62722 81.77392,-41.69034 81.77392,-41.69034 l -40.70027,3.62525 6.34775,-103.682074 -103.804354,4.3503 24.2708,97.881674 -39.20668,2.17514 z"
       id="path3763-3"
       inkscape:connector-curvature="0" />
    <path
       style="fill:#ffffff;stroke:#ffffff;stroke-width:0.26458332"
       d="M 44.424396,83.061306 41.199405,67.568452 59.295172,62.264123 71.815475,87.601188 Z"
       id="path3820"
       inkscape:connector-curvature="0" />
    <path
       style="fill:#000000;stroke:#000000;stroke-width:0.26458332"
       d="m 64.411954,58.328311 -20.446118,4.543581 -5.479024,6.414471 129.759358,0.267268 -9.48807,-9.087164 z"
       id="path3824"
       inkscape:connector-curvature="0" />
    <path
       style="fill:#000000;stroke:#000000;stroke-width:1.42857146"
       d="m 248.44776,763.08595 c -115.42259,-60.433 -132.01774,-69.5209 -128.46997,-70.3532 2.24072,-0.52568 26.25261,-2.04636 53.35975,-3.3793 27.10715,-1.33294 50.88142,-2.89736 52.83173,-3.47648 3.05194,-0.90625 -0.13281,-2.90715 -22.85714,-14.36058 -30.74931,-15.49812 -81.99827,-42.81812 -96.40316,-51.39095 l -9.999999,-5.95135 7.142859,0.79013 c 19.57452,2.16526 140.94964,12.46463 141.41446,11.99982 0.29491,-0.2949 -16.84021,-70.5973 -38.07804,-156.22753 C 186.15041,385.10627 166.3279,303.21214 163.33822,288.74956 l -5.43579,-26.2956 226.62068,1.03207 c 124.64139,0.56764 226.88378,1.29515 227.2053,1.61668 0.32155,0.32153 -14.2604,60.54726 -32.4043,133.83496 -18.14388,73.2877 -33.63054,138.71464 -34.41477,145.39321 -1.96995,16.77636 -5.1124,76.9356 -4.07304,77.97494 0.76259,0.7626 110.74447,7.57606 124.6441,7.72179 5.21009,0.0546 2.81511,1.57904 -27.14286,17.27657 -67.7214,35.48499 -73.76087,38.74201 -73.08754,39.41534 0.37929,0.37929 26.81321,-1.65354 58.74209,-4.5174 31.92885,-2.86384 58.7681,-4.96845 59.64274,-4.67691 4.88917,1.62973 -157.62184,85.42181 -272.5416,140.52478 l -30.10146,14.43339 z"
       id="path3826"
       inkscape:connector-curvature="0"
       transform="scale(0.26458333)" />
    <path
       style="fill:#000000;stroke:#000000;stroke-width:1.42857146"
       d="M 351.83754,919.42698 C 262.42374,908.05238 186.98371,871.73722 124.61101,810.04517 88.904068,774.72787 63.699176,738.54872 43.830548,694.09271 -9.2339607,575.36101 2.270203,436.65548 74.142944,328.61659 173.17131,179.75744 360.78979,118.36278 529.05183,179.75611 c 22.36817,8.16141 58.99541,26.56825 78.27566,39.33704 92.67304,61.37486 152.7491,155.50667 169.73377,265.95202 3.30685,21.50325 3.76291,81.09778 0.78168,102.14285 -9.96597,70.35172 -35.81,131.91907 -78.55661,187.14286 -13.03487,16.83956 -40.82837,45.07343 -59.21583,60.15403 -54.18244,44.43813 -115.81229,71.65087 -189.12856,83.50997 -19.40881,3.13943 -78.92304,3.99944 -99.1044,1.4321 z M 444.93951,803.55065 C 570.40569,742.63584 690.4804,680.03955 690.4804,675.54744 c 0,-0.7284 -3.02691,-0.95886 -6.78571,-0.51665 -17.49489,2.05822 -105.38348,9.39652 -107.97979,9.01582 -1.81563,-0.26623 15.56944,-10.08834 45.64454,-25.78799 26.71743,-13.94688 49.8245,-26.30144 51.34905,-27.45457 2.63731,-1.99478 2.5638,-2.0998 -1.5138,-2.16268 -2.35715,-0.0363 -26.14286,-1.33793 -52.85715,-2.89239 -49.9879,-2.90871 -61.67421,-3.33041 -60.52795,-2.18416 0.60701,0.60703 9.08394,1.25122 38.3851,2.91705 5.89285,0.33501 16.82142,1.03677 24.28571,1.55945 13.19124,0.92372 25.015,1.459 40.31787,1.82527 l 7.46072,0.17858 -3.51165,2.5 c -1.9314,1.375 -7.37801,4.49521 -12.10357,6.93381 -17.81793,9.19483 -34.72847,18.09007 -47.16337,24.8088 -7.07143,3.82077 -17.35714,9.21607 -22.85714,11.98956 -12.01446,6.05851 -18.43773,10.8307 -14.64286,10.87891 1.375,0.0174 2.5,-0.6898 2.5,-1.57171 0,-1.12789 0.61824,-1.0904 2.08434,0.12628 1.18139,0.98046 3.81159,1.36582 6.07143,0.88955 2.1929,-0.46218 9.12994,-1.2127 15.41566,-1.66782 15.34968,-1.11141 27.45444,-2.08817 52.85714,-4.26516 3.92857,-0.33667 11.30073,-0.93695 16.38256,-1.33398 5.08183,-0.39702 10.22468,-1.02749 11.42857,-1.40104 1.20389,-0.37356 3.04151,-0.14346 4.08363,0.51132 1.93391,1.21512 -2.51149,4.52472 -14.03762,10.45096 -2.75,1.41394 -9.82142,5.19637 -15.71428,8.4054 -46.21327,25.16607 -166.86307,86.00797 -258.57143,130.39373 l -9.28571,4.49424 -9.43449,-5 c -5.18896,-2.75 -15.7961,-8.30973 -23.57143,-12.35495 -7.77531,-4.04522 -21.20837,-11.07909 -29.85123,-15.6308 -8.64285,-4.55172 -22.42718,-11.71229 -30.63184,-15.91239 -8.20466,-4.2001 -15.59751,-8.164 -16.42857,-8.80866 -0.83106,-0.64465 -14.36816,-7.83663 -30.08244,-15.98214 -15.71429,-8.14553 -34.35715,-17.8279 -41.42858,-21.5164 -7.07142,-3.68849 -18.32142,-9.55584 -25,-13.03859 -18.58337,-9.69082 -51.97686,-28.2434 -53.5,-29.72322 -0.84808,-0.82398 -0.58016,-1.36482 0.71429,-1.44188 1.13929,-0.0679 4.96429,-0.33681 8.5,-0.59775 3.53571,-0.26095 13.82143,-0.8821 22.85714,-1.38036 24.89099,-1.37257 35.0729,-1.97827 50.71429,-3.01687 7.85714,-0.52173 16.09637,-0.89177 18.3094,-0.82234 3.06221,0.0961 3.9141,-0.45916 3.56508,-2.32369 -0.41075,-2.1944 -20.2573,-13.01127 -65.42634,-35.65906 -5.88208,-2.94928 -11.34637,-5.90425 -12.14285,-6.56661 -0.79648,-0.66236 -8.26867,-4.84093 -16.60486,-9.28572 -24.677,-13.15757 -29.80269,-16.2771 -28.96687,-17.62948 0.43593,-0.70534 1.8753,-0.93882 3.1986,-0.51882 1.32331,0.42 6.57278,1.13549 11.66549,1.58998 5.09272,0.45448 11.50949,1.04872 14.25949,1.32054 2.75,0.27181 9.5,0.86793 15,1.3247 5.5,0.45678 13.53572,1.1568 17.85714,1.5556 10.05322,0.92776 31.76632,2.76938 50,4.24081 3.53572,0.28533 12.12883,0.99276 19.09582,1.57205 12.04326,1.00138 12.62643,0.91911 11.8388,-1.67033 -0.45564,-1.49799 -1.51333,-5.61647 -2.35042,-9.15219 -0.83708,-3.53571 -1.82525,-7.55357 -2.19594,-8.92857 -0.37068,-1.375 -0.9954,-3.78571 -1.38826,-5.35714 l -1.42857,-5.71429 -1.42857,-5.71428 -1.42857,-5.71429 c -1.71901,-6.87606 -2.33303,-9.50414 -3.00389,-12.85714 -0.75347,-3.76599 -4.41418,-18.96939 -5.58958,-23.21429 -0.38073,-1.375 -1.01367,-3.78571 -1.40653,-5.35714 l -1.42857,-5.71429 -1.42857,-5.71428 -1.42857,-5.71429 -1.42858,-5.71428 -1.42857,-5.71429 -1.42857,-5.71429 -1.42857,-5.71428 -1.42857,-5.71429 -1.42857,-5.71428 c -0.39286,-1.57143 -1.0737,-4.30357 -1.51299,-6.07143 -0.43927,-1.76786 -1.10117,-4.85804 -1.47088,-6.86709 -0.61366,-3.33478 -5.3774,-22.86284 -7.03708,-28.8472 -0.38134,-1.375 -1.01477,-3.78571 -1.40762,-5.35714 l -1.42858,-5.71429 -1.42857,-5.71428 -1.42857,-5.71429 -1.42857,-5.71428 -1.42857,-5.71429 c -0.39286,-1.57143 -1.0737,-4.30357 -1.51299,-6.07143 -0.43927,-1.76785 -1.10117,-4.85804 -1.47088,-6.86708 -0.61366,-3.33479 -5.3774,-22.86285 -7.03707,-28.8472 -0.38135,-1.375 -1.01478,-3.78572 -1.40763,-5.35715 l -1.42857,-5.71428 -1.42858,-5.71429 c -1.7004,-6.80157 -2.33238,-9.49814 -3.01332,-12.85714 -0.75988,-3.74829 -3.02252,-13.24416 -4.16985,-17.5 -0.37068,-1.375 -0.9954,-3.78571 -1.38825,-5.35714 l -1.42858,-5.71429 c -0.70542,-2.82173 -1.56944,-6.57438 -2.79574,-12.14286 -0.34607,-1.57142 -1.01824,-4.46428 -1.4937,-6.42857 -0.47547,-1.96428 -1.10056,-4.85714 -1.38908,-6.42857 -0.28853,-1.57143 -0.91466,-4.46428 -1.39142,-6.42857 -0.47674,-1.96429 -1.2405,-6.07521 -1.69721,-9.13538 -0.81076,-5.43237 -4.63732,-15.88302 -4.74836,-12.96815 -0.21111,5.54221 15.24883,70.91553 48.74044,206.10192 21.27569,85.87768 38.43726,156.38704 38.13685,156.68747 -0.30043,0.30041 -32.3583,-2.31783 -71.23972,-5.81833 -38.88142,-3.5005 -72.622056,-6.18844 -74.979199,-5.97319 l -4.285714,0.39137 5.714285,3.69549 c 9.230538,5.96949 55.939448,31.16784 92.041818,49.65441 31.15265,15.95203 33.13114,17.19266 28.57143,17.91602 -2.69443,0.42746 -26.43468,1.83806 -52.7561,3.13466 -26.32143,1.29661 -49.95274,2.76548 -52.51403,3.26417 -4.22688,0.82295 7.84295,7.46105 130.71428,71.88951 74.45415,39.04056 135.77063,71.0227 136.25886,71.07143 0.48823,0.0487 29.4168,-13.7625 64.28571,-30.69163 z M 553.33754,622.90231 c 0,-0.78572 -2.57143,-1.42857 -5.71428,-1.42857 -6.83987,0 -6.5109,3.7418 -3.5795,-40.71429 2.34373,-35.54354 2.49695,-40.10793 1.30647,-38.91744 -1.23984,1.23984 -2.79329,22.92348 -4.18832,58.46241 l -0.87935,22.4021 4.74178,0.58356 c 2.60797,0.32096 5.54535,0.68643 6.52749,0.81217 0.98214,0.12574 1.78571,-0.41423 1.78571,-1.19994 z m -4.56161,-93.60923 c -0.43984,-0.43984 -1.23864,0.35301 -1.77512,1.7619 -0.77525,2.036 -0.61117,2.20009 0.79972,0.79971 0.97631,-0.96905 1.41524,-2.12177 0.9754,-2.56161 z m 1.42857,-5.71429 c -0.43984,-0.43984 -1.23864,0.35302 -1.77511,1.7619 -0.77526,2.036 -0.61118,2.20009 0.79971,0.79972 0.97631,-0.96906 1.41524,-2.12177 0.9754,-2.56162 z m 1.40127,-6.58607 c -0.35664,-1.06993 -1.0042,-0.42235 -1.50936,1.50936 -0.62138,2.37621 -0.43547,2.93397 0.62463,1.87387 0.83015,-0.83014 1.22827,-2.3526 0.88473,-3.38323 z m 1.73177,-4.8047 c 0,-1.17857 -0.25265,-2.14285 -0.56144,-2.14285 -0.3088,0 -0.93147,0.96428 -1.38374,2.14285 -0.45226,1.17857 -0.1996,2.14286 0.56144,2.14286 0.76106,0 1.38374,-0.96429 1.38374,-2.14286 z m 1.42857,-5.71428 c 0,-1.17857 -0.25265,-2.14286 -0.56144,-2.14286 -0.3088,0 -0.93147,0.96429 -1.38374,2.14286 -0.45226,1.17857 -0.1996,2.14285 0.56144,2.14285 0.76106,0 1.38374,-0.96428 1.38374,-2.14285 z m 30.29425,-123.10349 c 16.26898,-65.73366 29.2714,-120.01501 28.89425,-120.62523 -0.37712,-0.61022 -100.11498,-1.16206 -221.63968,-1.22631 -121.5247,-0.0642 -220.61659,0.22059 -220.20419,0.63298 0.41239,0.41239 75.91069,1.04667 167.77402,1.4095 182.47477,0.72072 270.59564,1.93323 270.59564,3.72329 0,0.63515 -0.93171,5.21257 -2.07049,10.17204 -1.13877,4.95947 -2.39152,10.62436 -2.78391,12.58865 -0.66966,3.35233 -1.2816,5.97255 -3.00274,12.85714 l -1.42857,5.71428 c -0.39286,1.57143 -1.02629,3.98215 -1.40763,5.35715 -1.65967,5.98435 -6.42342,25.51241 -7.03707,28.8472 -0.36972,2.00904 -1.03162,5.09923 -1.47089,6.86708 -0.43929,1.76786 -1.12013,4.5 -1.51299,6.07143 l -1.42857,5.71429 -1.42857,5.71428 -1.42857,5.71429 -1.42857,5.71428 -1.42857,5.71429 c -0.39286,1.57143 -1.02629,3.98214 -1.40763,5.35714 -1.65967,5.98436 -6.42342,25.51242 -7.03707,28.8472 -0.36972,2.00905 -1.03162,5.09923 -1.47089,6.86709 -0.43928,1.76786 -1.12013,4.5 -1.51298,6.07143 l -1.42858,5.71428 -1.42857,5.71429 -1.42857,5.71428 c -0.39286,1.57143 -1.0733,4.30358 -1.51208,6.07143 -0.43879,1.76786 -0.98112,3.85715 -1.20518,4.64286 -1.12085,3.93063 -2.32004,8.93646 -2.90892,12.14286 -0.61145,3.32927 -1.13876,5.63117 -2.94525,12.85714 -1.66665,6.66664 -2.32957,9.48097 -3.00493,12.75704 -0.39357,1.90923 -1.04141,3.99852 -1.43964,4.64286 -0.39823,0.64434 -0.20397,1.16786 0.43169,1.16337 0.63565,-0.004 14.46673,-53.79023 30.7357,-119.5239 z"
       id="path3828"
       inkscape:connector-curvature="0"
       transform="scale(0.26458333)" />
    <path
       style="fill:#000000;stroke:#000000;stroke-width:1.42857146"
       d="M 359.05183,920.45567 C 346.34289,919.42981 316.9489,914.20247 300.65904,910.07125 207.99607,886.57135 128.07578,830.01805 74.512546,750.04517 50.119019,713.62427 29.089066,664.62004 19.830322,622.62401 12.716814,590.35839 11.40874,577.45097 11.389168,539.33088 11.368396,498.87537 13.825143,477.84445 22.547096,443.81371 46.832174,349.05982 108.33414,265.68424 192.1693,213.86417 c 47.94089,-29.63315 101.17621,-48.29592 158.3111,-55.49928 21.97869,-2.771 75.01214,-2.35489 96.42857,0.75659 84.5715,12.28697 157.78329,47.77295 216.94832,105.15553 61.77598,59.9149 98.75961,131.53516 113.26361,219.33958 3.6791,22.2725 3.74934,87.23408 0.11914,110.15543 -19.13167,120.7982 -89.48213,221.78497 -195.51823,280.66279 -41.90425,23.26784 -98.4959,40.89738 -146.13237,45.52347 -14.41255,1.39963 -61.56393,1.70604 -76.5376,0.49739 z m 27.98553,-90.04402 c -0.32889,-0.32888 -1.81453,0.0531 -3.30145,0.84889 -2.85088,1.52574 -1.58935,2.16394 -160.39837,-81.14449 -67.33045,-35.32037 -92.98482,-49.13711 -99.06056,-53.35127 -5.47286,-3.796 -3.00249,-5.18177 9.77485,-5.48321 5.5,-0.12972 8.07143,-0.52146 5.71428,-0.87046 -2.35714,-0.34899 -9.65541,-0.18944 -16.21837,0.35453 l -11.93266,0.98907 4.77467,2.90364 c 8.89413,5.40884 47.04922,25.62627 155.91649,82.61622 96.74662,50.645 108.91855,56.6559 111.93953,55.27944 1.86426,-0.84942 3.12047,-1.81347 2.79159,-2.14236 z m 32.01447,-14.6522 c 9.03571,-4.63314 15.78571,-8.42388 15,-8.42388 -0.78572,0 -8.82143,3.79074 -17.85714,8.42388 -9.03572,4.63314 -15.78572,8.42389 -15,8.42389 0.78571,0 8.82142,-3.79075 17.85714,-8.42389 z m 108.26496,-53.50677 c 83.34811,-41.81733 125.18965,-63.66097 148.8779,-77.72271 l 13.57142,-8.05623 -5.71428,-0.37163 c -3.14286,-0.2044 -10.85714,0.24587 -17.14286,1.00058 l -11.42857,1.37223 11.73161,-0.59455 c 20.20593,-1.02405 18.71286,0.41374 -24.58875,23.67857 -16.5,8.86501 -67.92857,35.27865 -114.28572,58.69698 -46.35714,23.41832 -83.78077,42.59397 -83.16361,42.61257 0.61716,0.0186 37.58144,-18.25851 82.14286,-40.61581 z M 164.44673,689.00675 c -2.92566,-0.30697 -8.06852,-0.31121 -11.42857,-0.01 -3.36005,0.30179 -0.96633,0.55294 5.31938,0.55813 6.28572,0.006 9.03485,-0.24173 6.10919,-0.54869 z m 24.24796,-1.43083 c -2.94643,-0.3082 -7.76786,-0.3082 -10.71429,0 -2.94643,0.30822 -0.53571,0.56037 5.35714,0.56037 5.89286,0 8.30357,-0.25215 5.35715,-0.56037 z m 24.25385,-1.43047 c -2.96395,-0.30924 -7.46395,-0.30406 -10,0.0114 -2.53605,0.31559 -0.111,0.56861 5.389,0.56227 5.5,-0.006 7.57495,-0.26454 4.611,-0.5738 z m 12.57042,-1.75218 c -0.46439,-0.7514 -1.78805,-1.00405 -2.94146,-0.56145 -2.95301,1.13319 -2.60503,1.92763 0.84436,1.92763 1.6178,0 2.5615,-0.61478 2.0971,-1.36618 z m 354.96144,0.11605 -7.85714,-0.89273 13.21428,-6.85297 c 7.26786,-3.76913 13.21429,-7.1744 13.21429,-7.56725 0,-0.82138 -23.9581,11.39252 -27.66779,14.10511 -2.0798,1.52079 -0.94538,1.82647 7.24376,1.95187 l 9.70974,0.14869 z m 19.64286,-1.20165 c -2.16072,-0.32733 -5.69643,-0.32733 -7.85715,0 -2.16071,0.32731 -0.39285,0.59512 3.92858,0.59512 4.32142,0 6.08928,-0.26781 3.92857,-0.59512 z m -379,-1.71883 c -0.74643,-0.72242 -17.10132,-9.48865 -36.34419,-19.4805 -53.95267,-28.01495 -79.02502,-41.96763 -82.20948,-45.74932 -2.751005,-3.26694 -7.803476,-4.7743 -7.803476,-2.3281 0,1.79506 123.214226,68.52837 127.071426,68.82239 0.35357,0.027 0.0322,-0.54206 -0.71428,-1.26447 z m 396.14285,0.29025 c -2.16071,-0.32732 -5.69642,-0.32732 -7.85714,0 -2.16071,0.32732 -0.39286,0.59513 3.92857,0.59513 4.32143,0 6.08929,-0.26781 3.92857,-0.59513 z m 18.59702,-1.42611 c -2.14664,-0.32596 -6.00379,-0.33251 -8.57143,-0.0146 -2.56764,0.31794 -0.8113,0.58464 3.90299,0.59266 4.71428,0.009 6.81508,-0.25212 4.66844,-0.57809 z m 15.6887,-1.43103 c -2.16072,-0.32733 -5.69643,-0.32733 -7.85714,0 -2.16072,0.32732 -0.39286,0.59513 3.92857,0.59513 4.32143,0 6.08928,-0.26781 3.92857,-0.59513 z m -28.21429,-22.5801 c 0,-0.39286 -5.14285,1.87149 -11.42857,5.03189 -6.28571,3.1604 -11.42857,6.0676 -11.42857,6.46045 0,0.39286 5.14286,-1.87148 11.42857,-5.03188 6.28572,-3.1604 11.42857,-6.0676 11.42857,-6.46046 z m 27.14286,-14.2825 c 0,-0.39286 -5.78571,2.19147 -12.85714,5.74296 -7.07143,3.55148 -12.85715,6.77867 -12.85715,7.17153 0,0.39285 5.78572,-2.19147 12.85715,-5.74296 7.07143,-3.55149 12.85714,-6.77867 12.85714,-7.17153 z m 22.1231,-12.08221 c 0.58034,-0.93903 -2.06053,-1.38816 -7.39593,-1.25782 -7.76478,0.18967 -7.93103,0.26283 -2.58431,1.13713 l 5.71428,0.93442 -4.74981,2.79144 c -9.11184,5.35496 -9.47066,6.44837 -0.7114,2.16781 4.85348,-2.37184 9.2307,-4.96968 9.72717,-5.77298 z m -26.00857,-2.50445 c -3.31557,-0.2996 -9.10129,-0.30317 -12.85714,-0.009 -3.75585,0.29525 -1.0431,0.54039 6.02832,0.54473 7.07143,0.004 10.1444,-0.23721 6.82882,-0.53681 z M 244.6004,623.97374 c -0.11743,-2.27742 -0.35121,-2.51122 -0.80211,-0.80212 -0.35003,1.32669 -1.72189,2.69855 -3.04858,3.04857 -1.7091,0.4509 -1.4753,0.6847 0.80212,0.80212 2.47434,0.12757 3.17614,-0.57423 3.04857,-3.04857 z m 376.98919,2.17587 c -2.92566,-0.30697 -8.06852,-0.31122 -11.42858,-0.01 -3.36005,0.30178 -0.96632,0.55294 5.31939,0.55813 6.28571,0.006 9.03484,-0.24173 6.10919,-0.54869 z M 232.9804,624.73624 c -2.16071,-0.32733 -5.69643,-0.32733 -7.85714,0 -2.16072,0.32731 -0.39286,0.59513 3.92857,0.59513 4.32143,0 6.08928,-0.26782 3.92857,-0.59513 z m 362.82529,-0.0194 c -2.96396,-0.30924 -7.46396,-0.30406 -10,0.0114 -2.53606,0.31558 -0.111,0.56861 5.389,0.56227 5.5,-0.006 7.57494,-0.26454 4.611,-0.5738 z M 215.83754,623.3077 c -2.16071,-0.32733 -5.69643,-0.32733 -7.85714,0 -2.16071,0.32731 -0.39286,0.59512 3.92857,0.59512 4.32143,0 6.08929,-0.26781 3.92857,-0.59512 z m 357.1131,0.16011 c -0.4747,-0.4747 -1.70685,-0.52544 -2.7381,-0.11271 -1.13961,0.45602 -0.80111,0.79454 0.8631,0.86308 1.50595,0.062 2.3497,-0.27561 1.875,-0.75031 z m -374.25595,-1.58869 c -2.16072,-0.32732 -5.69643,-0.32732 -7.85715,0 -2.16071,0.32732 -0.39285,0.59513 3.92857,0.59513 4.32143,0 6.08929,-0.26781 3.92858,-0.59513 z m 343.70725,-1.18125 c -0.46527,-1.21246 -1.15233,-1.89809 -1.52678,-1.52362 -0.37447,0.37447 -0.25712,1.36649 0.26078,2.20447 1.40865,2.27923 2.23197,1.83645 1.266,-0.68085 z m 7.00703,1.25835 c -0.98214,-0.3963 -2.58928,-0.3963 -3.57143,0 -0.98214,0.3963 -0.17857,0.72056 1.78572,0.72056 1.96428,0 2.76785,-0.32426 1.78571,-0.72056 z m -366.42857,-1.5057 c -2.16071,-0.32733 -5.69643,-0.32733 -7.85714,0 -2.16072,0.32732 -0.39286,0.59513 3.92857,0.59513 4.32143,0 6.08928,-0.26781 3.92857,-0.59513 z m -15.6887,-1.42611 c -2.14664,-0.32596 -6.00379,-0.33252 -8.57143,-0.0146 -2.56764,0.31794 -0.8113,0.58464 3.90299,0.59265 4.71428,0.009 6.81508,-0.25211 4.66844,-0.57808 z m 75.59314,-2.10424 c -0.45603,-1.13962 -0.79454,-0.80112 -0.86308,0.8631 -0.062,1.50594 0.2756,2.3497 0.75031,1.875 0.4747,-0.4747 0.52544,-1.70686 0.11272,-2.7381 z m -98.11873,0.217 c -5.10714,-0.57408 -12.17857,-1.01412 -15.71428,-0.97789 -6.32843,0.0649 -6.30618,0.0809 1.42857,1.02874 4.32143,0.52957 11.39286,0.96963 15.71429,0.97789 l 7.85714,0.015 -9.28572,-1.04376 z m -26.05477,-2.35926 c -1.36584,-0.35756 -3.93727,-0.37053 -5.71428,-0.0289 -1.77702,0.3417 -0.65952,0.63426 2.48334,0.65012 3.14286,0.0159 4.59678,-0.26373 3.23094,-0.62129 z m 122.74493,-3.57203 c -0.45603,-1.13961 -0.79454,-0.80111 -0.86308,0.8631 -0.062,1.50594 0.2756,2.3497 0.75031,1.875 0.4747,-0.4747 0.52544,-1.70686 0.11271,-2.7381 z m -1.42857,-5.71429 c -0.45603,-1.13961 -0.79454,-0.80111 -0.86309,0.8631 -0.062,1.50595 0.2756,2.3497 0.75032,1.875 0.4747,-0.4747 0.52544,-1.70685 0.11271,-2.7381 z m 302.92384,-22.20028 c -0.30925,-2.96394 -0.56745,-0.889 -0.5738,4.611 -0.006,5.5 0.24669,7.92506 0.56227,5.389 0.31559,-2.53604 0.32078,-7.03604 0.0114,-10 z m -305.78098,9.34314 c -0.45603,-1.13961 -0.79455,-0.80111 -0.86309,0.8631 -0.062,1.50594 0.2756,2.3497 0.75032,1.875 0.4747,-0.4747 0.52544,-1.70686 0.11271,-2.7381 z m -1.42857,-5.71428 c -0.45603,-1.13962 -0.79455,-0.80112 -0.86309,0.8631 -0.062,1.50594 0.2756,2.3497 0.75031,1.875 0.4747,-0.4747 0.52545,-1.70686 0.11272,-2.7381 z m -1.42858,-5.71429 c -0.45602,-1.13961 -0.79454,-0.80111 -0.86308,0.8631 -0.062,1.50594 0.2756,2.3497 0.75031,1.875 0.4747,-0.4747 0.52545,-1.70686 0.11272,-2.7381 z m -1.42857,-5.71429 c -0.45603,-1.13961 -0.79454,-0.80111 -0.86308,0.8631 -0.062,1.50595 0.2756,2.3497 0.75031,1.875 0.4747,-0.4747 0.52544,-1.70685 0.11272,-2.7381 z m 311.49527,-13.62885 c -0.30925,-2.96395 -0.56745,-0.889 -0.5738,4.611 -0.006,5.5 0.24669,7.92505 0.56228,5.389 0.31558,-2.53605 0.32077,-7.03605 0.0114,-10 z m -312.92384,7.91457 c -0.45603,-1.13962 -0.79454,-0.80112 -0.86308,0.8631 -0.062,1.50594 0.2756,2.3497 0.75031,1.875 0.4747,-0.4747 0.52544,-1.70686 0.11271,-2.7381 z m -1.42857,-5.71429 c -0.45603,-1.13961 -0.79454,-0.80111 -0.86309,0.8631 -0.062,1.50595 0.2756,2.3497 0.75032,1.875 0.4747,-0.4747 0.52544,-1.70685 0.11271,-2.7381 z m -1.42857,-5.71428 c -0.45603,-1.13962 -0.79454,-0.80112 -0.86309,0.8631 -0.062,1.50594 0.2756,2.3497 0.75032,1.875 0.4747,-0.4747 0.52544,-1.70686 0.11271,-2.7381 z m -1.42857,-5.71429 c -0.45603,-1.13961 -0.79455,-0.80111 -0.86309,0.8631 -0.062,1.50594 0.2756,2.3497 0.75032,1.875 0.4747,-0.4747 0.52544,-1.70686 0.11271,-2.7381 z m 318.57143,-4.28571 c -0.45603,-1.13962 -0.79455,-0.80112 -0.86309,0.8631 -0.062,1.50594 0.27561,2.3497 0.75031,1.875 0.4747,-0.4747 0.52545,-1.70686 0.11272,-2.7381 z m -320,-1.42857 c -0.45603,-1.13962 -0.79455,-0.80112 -0.86309,0.8631 -0.062,1.50594 0.2756,2.3497 0.75031,1.875 0.4747,-0.4747 0.52545,-1.70686 0.11272,-2.7381 z m -1.42858,-5.71429 c -0.45602,-1.13961 -0.79454,-0.80111 -0.86308,0.8631 -0.062,1.50594 0.2756,2.3497 0.75031,1.875 0.4747,-0.4747 0.52545,-1.70686 0.11272,-2.7381 z m -1.42857,-5.71429 c -0.45603,-1.13961 -0.79454,-0.80111 -0.86308,0.8631 -0.062,1.50595 0.2756,2.3497 0.75031,1.875 0.4747,-0.4747 0.52544,-1.70685 0.11272,-2.7381 z m -1.42857,-5.71428 c -0.45603,-1.13962 -0.79454,-0.80112 -0.86308,0.8631 -0.062,1.50594 0.2756,2.3497 0.75031,1.875 0.4747,-0.4747 0.52544,-1.70686 0.11271,-2.7381 z m -1.42857,-5.71429 c -0.45603,-1.13961 -0.79454,-0.80111 -0.86309,0.8631 -0.062,1.50595 0.2756,2.3497 0.75032,1.875 0.4747,-0.4747 0.52544,-1.70685 0.11271,-2.7381 z m -3.95206,-17.47024 c -1.80605,-7.49157 -3.55158,-13.35319 -3.87895,-13.0258 -0.32739,0.32739 0.88242,6.72471 2.68847,14.21629 1.80605,7.49157 3.55158,13.35318 3.87895,13.0258 0.32739,-0.32739 -0.88242,-6.72472 -2.68847,-14.21629 z m -4.61937,-18.24404 c -0.45603,-1.13962 -0.79454,-0.80112 -0.86308,0.8631 -0.062,1.50594 0.2756,2.3497 0.75031,1.875 0.4747,-0.47472 0.52544,-1.70686 0.11271,-2.7381 z m -1.42857,-5.71429 c -0.45603,-1.13961 -0.79454,-0.80111 -0.86309,0.8631 -0.062,1.50594 0.2756,2.3497 0.75032,1.875 0.4747,-0.47471 0.52544,-1.70686 0.11271,-2.7381 z m -1.42857,-5.71428 c -0.45603,-1.13962 -0.79454,-0.80112 -0.86309,0.8631 -0.062,1.50594 0.2756,2.3497 0.75032,1.875 0.4747,-0.47472 0.52544,-1.70686 0.11271,-2.7381 z m -1.42857,-5.71429 c -0.45603,-1.13961 -0.79455,-0.80111 -0.86309,0.8631 -0.062,1.50594 0.2756,2.3497 0.75032,1.875 0.4747,-0.47471 0.52544,-1.70686 0.11271,-2.7381 z m -1.42857,-5.71429 c -0.45603,-1.13961 -0.79455,-0.80111 -0.86309,0.8631 -0.062,1.50595 0.2756,2.3497 0.75031,1.875 0.4747,-0.47471 0.52545,-1.70685 0.11272,-2.7381 z m -1.42858,-5.71428 c -0.45602,-1.13962 -0.79454,-0.80112 -0.86308,0.8631 -0.062,1.50594 0.2756,2.3497 0.75031,1.875 0.4747,-0.47472 0.52545,-1.70686 0.11272,-2.7381 z m -1.42857,-5.71429 c -0.45603,-1.13961 -0.79454,-0.80111 -0.86308,0.8631 -0.062,1.50595 0.2756,2.3497 0.75031,1.875 0.4747,-0.47471 0.52544,-1.70685 0.11272,-2.7381 z m -1.42857,-5.71428 c -0.45603,-1.13962 -0.79454,-0.80112 -0.86308,0.8631 -0.062,1.50594 0.2756,2.3497 0.75031,1.875 0.4747,-0.47472 0.52544,-1.70686 0.11271,-2.7381 z m -1.42857,-5.71429 c -0.45603,-1.13961 -0.79454,-0.80111 -0.86309,0.8631 -0.062,1.50594 0.2756,2.3497 0.75032,1.875 0.4747,-0.47471 0.52544,-1.70686 0.11271,-2.7381 z m -8.251,-34.59987 c -4.19299,-16.89036 -7.8855,-30.44783 -8.20561,-30.12771 -0.3201,0.3201 2.84861,14.40138 7.04158,31.29174 4.19299,16.89036 7.8855,30.44783 8.20562,30.12771 0.3201,-0.3201 -2.84862,-14.40138 -7.04159,-31.29174 z m 382.53671,14.59987 c -0.45602,-1.13961 -0.79454,-0.80111 -0.86308,0.8631 -0.062,1.50594 0.27561,2.3497 0.75031,1.875 0.4747,-0.47471 0.52545,-1.70686 0.11272,-2.7381 z m 1.42858,-5.71428 c -0.45603,-1.13962 -0.79455,-0.80112 -0.86309,0.8631 -0.062,1.50594 0.27561,2.3497 0.75031,1.875 0.4747,-0.47472 0.52545,-1.70686 0.11272,-2.7381 z m 1.42857,-5.71429 c -0.45603,-1.13961 -0.79455,-0.80111 -0.86309,0.8631 -0.062,1.50594 0.27562,2.3497 0.75032,1.875 0.4747,-0.47471 0.52544,-1.70686 0.11271,-2.7381 z m 1.42857,-5.71429 c -0.45603,-1.13961 -0.79454,-0.80111 -0.86309,0.8631 -0.062,1.50595 0.27562,2.3497 0.75032,1.875 0.4747,-0.47471 0.52544,-1.70685 0.11271,-2.7381 z m 1.42857,-5.71428 c -0.45603,-1.13962 -0.79454,-0.80112 -0.86309,0.8631 -0.062,1.50594 0.27562,2.3497 0.75032,1.875 0.4747,-0.47472 0.52544,-1.70686 0.11271,-2.7381 z m 1.42857,-5.71429 c -0.45603,-1.13961 -0.79454,-0.80111 -0.86308,0.8631 -0.062,1.50595 0.27561,2.3497 0.75031,1.875 0.4747,-0.47471 0.52544,-1.70685 0.11271,-2.7381 z m 1.42857,-5.71428 c -0.45603,-1.13962 -0.79454,-0.80112 -0.86308,0.8631 -0.062,1.50594 0.27561,2.3497 0.75031,1.875 0.4747,-0.47472 0.52544,-1.70686 0.11272,-2.7381 z m 1.42857,-5.71429 c -0.45602,-1.13961 -0.79454,-0.80111 -0.86308,0.8631 -0.062,1.50594 0.27561,2.3497 0.75031,1.875 0.4747,-0.47471 0.52545,-1.70686 0.11272,-2.7381 z m 13.14076,-52.58928 c -0.0499,-1.17858 -2.90738,8.78571 -6.35011,22.14285 -3.44272,13.35715 -6.2187,25.25 -6.16886,26.42857 0.0499,1.17858 2.90739,-8.78571 6.35011,-22.14285 3.44272,-13.35715 6.2187,-25.25 6.16886,-26.42857 z m -414.56933,42.58928 c -0.45603,-1.13961 -0.79454,-0.80111 -0.86308,0.8631 -0.062,1.50594 0.2756,2.3497 0.75031,1.875 0.4747,-0.47471 0.52544,-1.70686 0.11272,-2.7381 z m -1.42857,-5.71428 c -0.45603,-1.13962 -0.79454,-0.80112 -0.86308,0.8631 -0.062,1.50594 0.2756,2.3497 0.75031,1.875 0.4747,-0.47472 0.52544,-1.70686 0.11271,-2.7381 z m -4.67046,-20.32328 c -2.20815,-9.05374 -4.28085,-16.19532 -4.60598,-15.87021 -0.32512,0.32513 1.21556,7.99874 3.42373,17.05247 2.20815,9.05374 4.28085,16.19533 4.60598,15.87022 0.32512,-0.32513 -1.21555,-7.99875 -3.42373,-17.05248 z m -5.32954,-21.1053 c -0.45603,-1.13961 -0.79454,-0.80111 -0.86308,0.8631 -0.062,1.50595 0.2756,2.3497 0.75031,1.875 0.4747,-0.47471 0.52544,-1.70685 0.11271,-2.7381 z m 427.14286,-1.42857 c -0.45603,-1.13961 -0.79454,-0.80111 -0.86309,0.8631 -0.062,1.50595 0.27562,2.3497 0.75032,1.875 0.4747,-0.47471 0.52544,-1.70685 0.11271,-2.7381 z M 168.94979,313.71864 c -0.98182,-4.38723 -2.06063,-7.70127 -2.39738,-7.36455 -0.33672,0.33675 0.19108,4.2018 1.17289,8.58903 0.98181,4.38723 2.06063,7.70127 2.39737,7.36455 0.33673,-0.33675 -0.19107,-4.2018 -1.17288,-8.58903 z m 431.07791,4.6301 c -0.45603,-1.13962 -0.79454,-0.80112 -0.86309,0.8631 -0.062,1.50594 0.27562,2.3497 0.75032,1.875 0.4747,-0.47472 0.52544,-1.70686 0.11271,-2.7381 z m 1.42857,-5.71429 c -0.45603,-1.13961 -0.79454,-0.80111 -0.86308,0.8631 -0.062,1.50594 0.27561,2.3497 0.75031,1.875 0.4747,-0.47471 0.52544,-1.70686 0.11271,-2.7381 z m 1.42857,-5.71428 c -0.45603,-1.13962 -0.79454,-0.80112 -0.86308,0.8631 -0.062,1.50594 0.27561,2.3497 0.75031,1.875 0.4747,-0.47472 0.52544,-1.70686 0.11272,-2.7381 z m -437.14285,-5.71429 c -0.45603,-1.13961 -0.79455,-0.80111 -0.86309,0.8631 -0.062,1.50594 0.2756,2.3497 0.75031,1.875 0.4747,-0.47471 0.52545,-1.70686 0.11272,-2.7381 z m 447.56412,-36.51786 c 0.0249,-1.41134 -17.11487,-1.72709 -81.75428,-1.50607 l -81.78572,0.27964 79.28572,0.94558 c 43.60714,0.52008 79.76786,1.0371 80.35714,1.14894 1.85979,0.35296 1.1777,6.17797 -2.50184,21.36578 -1.96327,8.10362 -3.4985,15.49648 -3.41162,16.42858 0.17728,1.9019 9.76143,-35.8681 9.8106,-38.66245 z m -449.33365,27.57937 c -0.53783,-2.86693 -1.2636,-4.92688 -1.6128,-4.57767 -0.34922,0.34921 -0.19487,2.98059 0.34297,5.84751 0.53783,2.86692 1.2636,4.92688 1.6128,4.57766 0.34921,-0.3492 0.19487,-2.98058 -0.34297,-5.8475 z m -2.54595,-11.1508 c -0.3963,-0.98214 -0.72055,-0.17857 -0.72055,1.78572 0,1.96428 0.32425,2.76786 0.72055,1.78571 0.3963,-0.98214 0.3963,-2.58928 0,-3.57143 z m -1.73977,-8.8492 c -0.53783,-2.86693 -1.2636,-4.92688 -1.6128,-4.57767 -0.34921,0.34921 -0.19487,2.98059 0.34297,5.84751 0.53783,2.86692 1.2636,4.92687 1.6128,4.57767 0.34922,-0.34921 0.19488,-2.98059 -0.34297,-5.84751 z m 221.225,-10.42848 c -7.22704,-0.25874 -19.44133,-0.25986 -27.14285,-0.002 -7.70153,0.25736 -1.78849,0.46905 13.14008,0.47042 14.92857,0.001 21.22982,-0.20919 14.00277,-0.46793 z m 47.00616,10e-4 c -5.7308,-0.27185 -14.7308,-0.27003 -20,0.004 -5.2692,0.27409 -0.58036,0.49651 10.41964,0.49428 11,-0.002 15.31116,-0.22648 9.58036,-0.49833 z"
       id="path3830"
       inkscape:connector-curvature="0"
       transform="scale(0.26458333)" />
    <path
       style="fill:#000000;stroke:#000000;stroke-width:1.42857146"
       d="M 350.4804,919.99692 C 274.7942,909.55709 209.12071,881.73804 152.62326,836.18538 132.97945,820.34701 102.28535,788.49405 86.824397,767.90231 44.205788,711.14048 17.989783,643.01204 11.787878,572.90231 9.7686903,550.07629 10.840724,506.03268 13.926344,485.04517 21.319548,434.75871 40.923706,380.63684 66.966074,338.61659 130.96015,235.35997 240.74829,167.84713 362.23996,157.04162 c 22.99975,-2.04561 66.97811,-0.87509 88.24044,2.34859 43.60303,6.61086 78.20746,17.48746 118.00847,37.09152 60.2931,29.69748 114.51183,78.28221 152.55312,136.70095 30.53262,46.88796 53.20668,111.74346 58.00115,165.90301 1.84292,20.81788 1.82206,60.41192 -0.0423,80.24519 -6.4292,68.39604 -37.00857,142.41941 -82.32579,199.28571 -12.35184,15.49972 -41.93444,45.1068 -57.62326,57.67095 -42.4883,34.02611 -92.71675,59.38254 -144.63664,73.01577 -36.22651,9.51243 -48.7629,11.05217 -93.93478,11.53724 -22.39286,0.24047 -44.89286,-0.13914 -50,-0.84363 z M 131.90897,702.27942 c 0,-0.34257 -2.59064,-2.07888 -5.75697,-3.85847 -3.397,-1.90923 -5.46505,-3.99636 -5.04484,-5.09141 0.46554,-1.21317 -0.50906,-1.8558 -2.81445,-1.8558 -5.43584,0 -4.2261,1.72963 4.70707,6.7299 8.91167,4.98825 8.90919,4.98713 8.90919,4.07578 z m 555.00474,-25.09908 c 0.52753,-0.85355 -1.29451,-1.37586 -4.56328,-1.3081 -2.9928,0.062 -4.63789,0.43703 -3.65574,0.83333 0.98214,0.3963 1.78571,1.65388 1.78571,2.79462 0,1.61159 0.61936,1.7426 2.77759,0.58756 1.52767,-0.81758 3.17274,-2.12593 3.65572,-2.90741 z m -15.68122,-46.85927 c -0.43985,-0.43985 -1.59256,-9.2e-4 -2.56162,0.9754 -1.40037,1.41088 -1.23628,1.57497 0.79972,0.79971 1.40888,-0.53647 2.20174,-1.33527 1.7619,-1.77511 z M 612.44951,268.25945 c 0.67329,-2.80656 0.39335,-3.92857 -0.9802,-3.92857 -1.33018,0 -1.72582,1.34106 -1.28391,4.35195 0.73461,5.00524 0.97244,4.96076 2.26411,-0.42338 z m -24.54137,-4.99391 c -7.3076,-0.2598 -18.87903,-0.25857 -25.71428,0.003 -6.83526,0.26129 -0.85632,0.47385 13.28654,0.47236 14.14286,-0.001 19.73534,-0.21529 12.42774,-0.47509 z"
       id="path3832"
       inkscape:connector-curvature="0"
       transform="scale(0.26458333)" />
    <path
       style="fill:#000000;stroke:#000000;stroke-width:1.42857146"
       d="M 352.62326,920.56961 C 316.52514,915.20242 291.04094,909.08627 264.13017,899.33148 137.72119,853.50991 43.847982,744.98054 17.617003,614.33088 c -5.404983,-26.92081 -7.136875,-44.90134 -7.13541,-74.07993 0.002,-40.00721 3.539026,-67.07563 13.526533,-103.51714 12.356723,-45.08609 33.783562,-88.65056 62.505651,-127.08482 17.215933,-23.03737 53.383693,-59.20681 76.413313,-76.41683 57.38818,-42.88618 124.22207,-68.92781 195.41045,-76.14111 24.31927,-2.4642 74.60685,-0.95876 97.85715,2.92951 62.48617,10.44989 120.67715,34.81393 168.57007,70.57876 81.99178,61.22872 132.60058,143.04785 151.64255,245.16013 3.63532,19.49429 5.25433,80.46207 2.77426,104.47042 -6.89774,66.77331 -33.62144,133.49837 -76.49627,190.99971 -14.81549,19.8697 -51.33816,56.27571 -72.2049,71.97426 -41.70023,31.37205 -86.93746,53.33595 -137.66341,66.83927 -33.17913,8.83233 -46.2019,10.33963 -93.05088,10.77 -23.57142,0.21654 -44.78571,0.107 -47.14285,-0.2435 z M 120.89433,694.33088 c -0.66723,-2.55146 -4.69964,-4.21879 -4.69964,-1.9432 0,0.71711 4.20899,4.54861 5.2234,4.75491 0.12287,0.025 -0.11282,-1.24028 -0.52376,-2.81171 z m 564.09228,-17.49379 c -1.63597,-1.63597 -4.92392,-0.0521 -3.76948,1.81582 0.43084,0.69711 1.77026,0.88876 2.97647,0.42588 1.43239,-0.54965 1.70746,-1.32725 0.79301,-2.2417 z"
       id="path3834"
       inkscape:connector-curvature="0"
       transform="scale(0.26458333)" />
    <path
       style="fill:#000000;stroke:#000000;stroke-width:1.42857146"
       d="M 336.90897,918.48844 C 273.69139,907.40699 222.51443,886.72842 173.33754,852.39575 154.33757,839.13098 141.16503,827.96045 122.60509,809.37377 65.073998,751.75981 29.227891,682.49969 14.635149,600.75945 c -3.86949,-21.67468 -5.3748254,-76.07428 -2.81321,-101.66337 6.887929,-68.80654 34.996935,-138.62426 78.413566,-194.7652 12.820235,-16.57752 45.043915,-49.26031 62.387755,-63.27662 57.35633,-46.35217 129.93231,-76.31252 203.4448,-83.98476 26.32441,-2.74739 78.85024,-0.99053 104.41234,3.49234 81.12913,14.22775 151.23894,50.64445 209.32647,108.72912 20.4884,20.48739 32.33503,35.00808 49.16493,60.26258 31.44406,47.18411 54.4386,110.26011 59.99504,164.57155 1.92462,18.81215 1.94179,74.09043 0.0283,90.92008 -4.53583,39.89272 -17.64896,83.20708 -37.19414,122.85714 -18.56306,37.65767 -38.4585,66.01387 -66.9857,95.47203 -49.25368,50.86104 -104.33285,84.33698 -170.68742,103.74017 -39.83887,11.64956 -62.10087,14.41004 -114.87021,14.24386 -29.40495,-0.0926 -39.73542,-0.65895 -52.34865,-2.86993 z M 119.56844,693.61659 c -0.45226,-1.17857 -1.47509,-2.14285 -2.27295,-2.14285 -0.83614,0 -0.6973,0.90773 0.32777,2.14285 0.97812,1.17858 2.00095,2.14286 2.27294,2.14286 0.27199,0 0.1245,-0.96428 -0.32776,-2.14286 z"
       id="path3836"
       inkscape:connector-curvature="0"
       transform="scale(0.26458333)" />
    <path
       style="fill:#000000;stroke:#000000;stroke-width:1.42857146"
       d="M 335.4804,918.58531 C 264.6146,905.87258 204.54233,879.06962 151.90897,836.67969 137.28035,824.89808 105.9997,793.39191 94.261474,778.61659 52.595972,726.17077 26.385566,668.11048 14.615554,602.18802 10.781543,580.71418 9.2098023,521.85765 11.802009,496.83001 c 8.071589,-77.93084 43.58415,-156.23642 97.461531,-214.90372 60.06975,-65.4102 134.5921,-106.12845 223.35972,-122.04147 21.20303,-3.80099 74.91325,-5.29709 101.86634,-2.83751 67.63556,6.17205 137.57377,33.20356 192.26803,74.31267 68.40923,51.41753 116.48651,120.65617 139.94506,201.54233 11.96871,41.26867 14.37147,62.40748 13.34445,117.40076 -0.81843,43.82465 -1.89015,52.28607 -10.89627,86.02802 -13.74717,51.50466 -43.37688,109.119 -75.61824,147.0381 -13.04764,15.34536 -43.72694,45.28739 -57.86294,56.47242 -42.07253,33.28964 -92.68916,58.01581 -146.65662,71.64158 -32.91493,8.3104 -37.26678,8.76699 -89.24696,9.36362 -43.63142,0.50081 -50.16965,0.2708 -64.28571,-2.2615 z"
       id="path3838"
       inkscape:connector-curvature="0"
       transform="scale(0.26458333)" />
    <path
       style="fill:#000000;stroke:#000000;stroke-width:1.42857146"
       d="M 334.14211,918.49365 C 269.73019,907.15905 213.23703,883.04171 162.86563,845.37448 139.69716,828.04934 103.84477,792.08935 86.133702,768.41228 49.208595,719.04889 24.740122,661.98448 13.94009,600.04517 10.258885,578.93307 9.4456346,513.16029 12.562969,488.66851 21.123009,421.41531 50.121401,354.00694 94.321361,298.61659 106.67097,283.14036 136.19697,253.58408 151.90897,240.96994 203.93393,199.20247 268.90823,170.2249 335.4804,159.0998 c 22.86866,-3.82165 97.19064,-3.81592 120,0.009 40.50517,6.79281 76.79014,18.53987 113.45224,36.72955 83.582,41.4687 149.29462,112.2868 184.92269,199.2901 11.61147,28.35506 20.6933,61.87553 24.5549,90.63074 2.80531,20.88953 2.76831,85.9936 -0.061,107.42683 -8.3268,63.07801 -41.62562,138.8599 -82.5787,187.93371 -13.7355,16.45918 -51.24046,52.50183 -66.72167,64.12023 -44.97705,33.75455 -98.69003,58.00116 -155.71127,70.28972 -21.52888,4.63965 -40.29973,5.952 -83.36565,5.82843 -32.93887,-0.0944 -43.02971,-0.61229 -55.82978,-2.86472 z"
       id="path3840"
       inkscape:connector-curvature="0"
       transform="scale(0.26458333)" />
    <path
       style="fill:#000000;stroke:#000000;stroke-width:1.42857146"
       d="m 333.12659,918.56319 c -68.859,-12.13135 -133.9683,-41.8058 -184.07476,-83.89457 -16.27164,-13.66795 -44.62367,-42.5753 -57.152505,-58.2719 C 63.301844,740.56871 37.076215,689.86068 24.254881,645.60418 18.544364,625.89271 13.560891,601.69262 11.973553,585.96524 9.7982812,564.41257 10.13718,505.18471 12.538994,487.14579 21.046427,423.25038 46.726361,361.46922 87.292155,307.30358 c 15.152195,-20.23204 51.274545,-56.6517 71.377955,-71.96545 54.8938,-41.81527 125.87889,-71.09187 189.25399,-78.0546 17.8513,-1.96124 75.06093,-1.96763 94.19066,-0.0105 38.62387,3.95149 83.40584,17.17031 123.36564,36.41525 63.82537,30.7388 121.5821,82.82009 159.38847,143.72625 27.58944,44.44666 48.34593,102.36338 54.18854,151.20208 2.10725,17.61448 2.09516,83.9594 -0.0184,101.42858 -7.20383,59.53977 -36.16896,129.37398 -74.95483,180.71428 -13.20192,17.47519 -43.33865,48.55699 -63.40317,65.39147 -43.0092,36.08546 -104.7576,65.88747 -163.0577,78.69756 -24.95512,5.4833 -40.30859,6.63573 -86.72942,6.50989 -34.88207,-0.0946 -45.29931,-0.59862 -57.76726,-2.79518 z"
       id="path3842"
       inkscape:connector-curvature="0"
       transform="scale(0.26458333)" />
    <path
       style="fill:#000000;stroke:#000000;stroke-width:1.42857146"
       d="m 363.33754,921.40431 c -69.81,-3.01903 -149.97311,-34.56294 -209.28571,-82.35324 -7.85714,-6.33079 -23.9303,-21.39342 -35.71812,-33.4725 C 86.774094,773.23914 69.945546,749.75597 49.872431,710.04517 32.366966,675.41397 20.45274,639.79457 14.070449,603.00964 8.7671749,572.44372 8.7314305,505.24602 14.002381,475.04517 24.744306,413.49738 53.423201,349.32474 91.891058,300.75945 c 11.660162,-14.72084 47.439922,-50.5006 62.160772,-62.16077 36.75551,-29.1135 89.01646,-56.05059 134.44098,-69.2955 17.62749,-5.13984 41.62293,-10.16668 57.57315,-12.06109 17.2018,-2.04306 79.36413,-2.0539 97.98587,-0.0171 41.05673,4.49072 93.31721,21.03888 133.53428,42.28333 101.61123,53.67557 174.9695,152.17835 197.98472,265.84661 6.49454,32.07546 7.71084,93.56404 2.59364,131.11879 -6.7518,49.55103 -28.93771,106.68894 -60.1845,155 -27.72423,42.8648 -76.03278,89.16625 -120.94357,115.91867 -39.84196,23.73301 -92.04133,43.6036 -132.27029,50.35096 -21.86458,3.66721 -65.15378,5.22968 -101.42857,3.66094 z"
       id="path3844"
       inkscape:connector-curvature="0"
       transform="scale(0.26458333)" />
    <path
       style="fill:#000000;stroke:#000000;stroke-width:1.42857146"
       d="m 356.19469,921.51531 c -66.7461,-4.2993 -150.76529,-38.98453 -205,-84.62916 C 136.6933,824.68161 104.91145,792.76375 92.905528,778.34758 62.173316,741.44568 33.561489,684.24959 20.466762,633.53984 14.138966,609.03524 11.984809,594.43781 10.320128,564.78221 6.0151569,488.09091 18.179252,429.09707 51.837989,363.42748 c 20.497379,-39.99123 40.620975,-66.8708 75.299781,-100.57975 30.23836,-29.39268 57.43756,-48.61758 95.89557,-67.78078 38.34239,-19.10558 76.37,-31.23288 116.73277,-37.22699 21.5787,-3.20457 87.26439,-3.20235 111.15416,0.004 64.45562,8.6502 134.68872,39.21254 188.12929,81.86556 15.83555,12.63898 44.16944,40.70192 56.59134,56.05019 37.82184,46.73197 64.99287,102.4299 78.401,160.71429 9.15359,39.79014 10.15144,112.49798 2.11543,154.13967 -8.16626,42.3165 -25.92499,87.66258 -50.56527,129.11597 -33.15616,55.77999 -91.34592,109.93276 -150.57703,140.13059 -41.2034,21.00675 -88.3185,36.15095 -124.53463,40.02917 -19.2153,2.05765 -73.1461,2.98783 -94.28571,1.62617 z"
       id="path3846"
       inkscape:connector-curvature="0"
       transform="scale(0.26458333)" />
    <circle
       style="fill:#ffffff;stroke:#000000;stroke-width:0.26458332"
       id="path3872"
       cx="105.83334"
       cy="142.78572"
       r="83.154762" />
    <ellipse
       style="fill:#000000;stroke:#000000;stroke-width:0.34737268"
       id="path3874"
       cx="105.26637"
       cy="143.54166"
       rx="72.341042"
       ry="69.506226" />
    <path
       style="fill:#000000;stroke:#000000;stroke-width:0.26458332"
       d="m 101.56242,54.586539 0.53454,28.330569 -16.570713,1.870885 z"
       id="path3880"
       inkscape:connector-curvature="0" />
    <path
       style="fill:#000000;stroke:#000000;stroke-width:0.26458332"
       d="M 102.09696,82.917106 C 98.355186,48.706608 98.889724,48.439339 98.889724,48.439339 L 41.778351,69.440943 69.490076,105.90229 Z"
       id="path3884"
       inkscape:connector-curvature="0" />
    <path
       style="fill:#ffffff;stroke:#ffffff;stroke-width:0.26458332"
       d="M 105.83873,49.508417 C 90.337099,65.01005 90.604368,65.01005 90.604368,65.01005 l 11.492592,17.907056 z"
       id="path3886"
       inkscape:connector-curvature="0" />
  </g>
</svg>
